<svg width="24" height="24" viewBox="0 0 24 24" fill="none" xmlns="http://www.w3.org/2000/svg">
<g id="Address">
<g id="Group 1000007823">
<path id="Vector" d="M6.33329 12.6667H8.35771C7.26365 11.2749 6.33329 9.54168 6.33329 7.66667C6.33329 4.54198 8.87527 2 12 2C15.1246 2 17.6666 4.54198 17.6666 7.66667C17.6666 9.54168 16.7361 11.2749 15.6422 12.6667H17.6666C18.3854 12.6536 19.0061 13.2863 19 14V20.6667C19 21.4021 18.4017 22 17.6666 22H6.33329C5.59816 22 4.99996 21.4021 4.99996 20.6667V14C4.99311 13.2836 5.61706 12.6536 6.33329 12.6667ZM17 7.66667C17 4.90968 14.7569 2.66667 12 2.66667C9.24296 2.66667 6.99996 4.90968 6.99996 7.66667C6.99996 11.3197 11.067 14.5596 12 15.2545C12.933 14.5595 17 11.3196 17 7.66667ZM17.6666 13.3333H15.0855C13.7208 14.8731 12.3026 15.8627 12.1888 15.9411C12.1319 15.9802 12.0659 15.9997 12 15.9997C11.934 15.9997 11.868 15.9802 11.8111 15.9411C11.6973 15.8626 10.2791 14.8731 8.91439 13.3333H6.33329C6.31752 13.3333 6.30234 13.3366 6.28671 13.3376L11.3751 17.4066C11.7373 17.6969 12.2629 17.6966 12.6251 17.4063L17.7131 13.3377C17.6974 13.3367 17.6823 13.3334 17.6665 13.3334L17.6666 13.3333ZM5.66662 20.6667C5.66662 21.0342 5.96558 21.3333 6.33329 21.3333H17.6666C18.0343 21.3333 18.3333 21.0342 18.3333 20.6667V14C18.3333 13.9094 18.3139 13.821 18.2788 13.7391L13.0419 17.9269C12.7399 18.1688 12.37 18.2899 11.9999 18.2899C11.6301 18.2899 11.2602 18.1688 10.9585 17.9272L5.72119 13.7391C5.68622 13.8206 5.66687 13.9091 5.66687 14.0001L5.66662 20.6667Z" fill="#303030"/>
<path id="Vector_2" d="M7.33333 18.6667H9C9.5515 18.6667 10 19.1152 10 19.6667C10 20.2182 9.5515 20.6667 9 20.6667H7.33333C6.01516 20.6323 6.01459 18.701 7.33333 18.6667ZM7.33333 20H9C9.43749 19.9924 9.4384 19.3411 9 19.3333H7.33333C6.89585 19.3409 6.89493 19.9923 7.33333 20Z" fill="#F26321"/>
<path id="Vector_3" d="M8.66693 7.66668C8.66693 5.82858 10.1622 4.33334 12.0003 4.33334C16.4224 4.51638 16.4212 10.8175 12.0003 11C10.1622 11 8.66693 9.50477 8.66693 7.66668ZM14.6669 7.66668C14.6669 6.19628 13.4707 5.00001 12.0003 5.00001C8.46263 5.14659 8.46365 10.1874 12.0003 10.3333C13.4707 10.3333 14.6669 9.13708 14.6669 7.66668Z" fill="#F26321"/>
</g>
</g>
</svg>
