<svg width="14" height="8" viewBox="0 0 14 8" fill="none" xmlns="http://www.w3.org/2000/svg">
<path d="M13.3482 0.464312C13.1609 0.277065 12.9069 0.171875 12.642 0.171875C12.3772 0.171875 12.1232 0.277065 11.9359 0.464312L6.9918 5.4084L2.04772 0.464312C1.85934 0.282371 1.60704 0.181697 1.34515 0.183973C1.08327 0.186248 0.832758 0.291292 0.647572 0.476478C0.462385 0.661665 0.357343 0.912178 0.355067 1.17406C0.352792 1.43594 0.453465 1.68824 0.635406 1.87662L6.28564 7.52686C6.47295 7.71411 6.72695 7.8193 6.9918 7.8193C7.25664 7.8193 7.51065 7.71411 7.69795 7.52686L13.3482 1.87662C13.5354 1.68932 13.6406 1.43531 13.6406 1.17047C13.6406 0.905619 13.5354 0.651615 13.3482 0.464312Z" fill="#303030"/>
</svg>
