<svg width="52" height="52" viewBox="0 0 52 52" fill="none" xmlns="http://www.w3.org/2000/svg">
<g id="Frame 1410116331">
<rect width="52" height="52" rx="5.47368" fill="#F5F5F7"/>
<g id="Cube">
<path id="Vector" d="M39.6477 33.0105V18.9908C39.6466 18.7883 39.5921 18.5896 39.4898 18.4149C39.3874 18.2401 39.2408 18.0955 39.0647 17.9955L26.5522 10.9572C26.3836 10.8598 26.1923 10.8086 25.9977 10.8086C25.803 10.8086 25.6117 10.8598 25.4431 10.9572L12.9306 17.9955C12.7545 18.0955 12.6079 18.2401 12.5056 18.4149C12.4032 18.5896 12.3487 18.7883 12.3477 18.9908V33.0105C12.3487 33.213 12.4032 33.4116 12.5056 33.5864C12.6079 33.7611 12.7545 33.9058 12.9306 34.0058L25.4431 41.0441C25.6117 41.1414 25.803 41.1926 25.9977 41.1926C26.1923 41.1926 26.3836 41.1414 26.5522 41.0441L39.0647 34.0058C39.2408 33.9058 39.3874 33.7611 39.4898 33.5864C39.5921 33.4116 39.6466 33.213 39.6477 33.0105V33.0105Z" stroke="#303030" stroke-width="1.73333" stroke-linecap="round" stroke-linejoin="round"/>
<path id="Vector_2" d="M39.4911 18.4082L26.1255 26.001L12.5039 18.4082" stroke="#303030" stroke-width="1.73333" stroke-linecap="round" stroke-linejoin="round"/>
<path id="Vector_3" d="M26.128 25.998L26 41.1837" stroke="#303030" stroke-width="1.73333" stroke-linecap="round" stroke-linejoin="round"/>
</g>
</g>
</svg>
