<svg width="36" height="36" viewBox="0 0 36 36" fill="none" xmlns="http://www.w3.org/2000/svg">
<rect width="36" height="36" rx="18" fill="#F26321"/>
<rect x="4" y="4" width="28" height="28" rx="14" fill="#F26321"/>
<mask id="path-3-inside-1_6134_57421" fill="white">
<path d="M11.7461 12.0001C10.7889 12.0001 10 12.7977 10 13.7702V22.2299C10 23.2024 10.7889 24 11.7461 24L24.2588 23.9999C25.216 23.9999 26 23.2023 26 22.2298V13.7701C26 12.7976 25.216 12 24.2588 12L11.7461 12.0001ZM11.7461 13.0122H24.2588C24.6793 13.0122 25 13.343 25 13.7702V14.5124H11.0001V13.7702C11.0001 13.343 11.3258 13.0122 11.7462 13.0122H11.7461ZM11 15.5284H24.9999V16.1664H11V15.5284ZM11 17.1824H24.9999V22.2297C24.9999 22.6569 24.6791 22.9838 24.2587 22.9838H11.746C11.3255 22.9838 10.9999 22.6569 10.9999 22.2297L11 17.1824ZM20.3036 18.4742C19.3138 18.4743 18.501 19.3002 18.5009 20.3059C18.501 21.3116 19.3138 22.1374 20.3036 22.1375C20.6351 22.1373 20.9544 22.0382 21.2333 21.8666C21.5058 22.0352 21.8213 22.1386 22.1611 22.1386C23.151 22.1386 23.9648 21.3118 23.9648 20.306C23.9648 19.3002 23.1511 18.4743 22.1611 18.4743C21.8214 18.4743 21.5057 18.5767 21.2333 18.7452C20.9544 18.5738 20.6351 18.4745 20.3036 18.4743V18.4742ZM12.5431 18.8999C12.4086 18.8969 12.2785 18.9491 12.1823 19.0447C12.0861 19.1403 12.032 19.2712 12.032 19.4079C12.032 19.5446 12.0861 19.6756 12.1823 19.7712C12.2785 19.8668 12.4086 19.919 12.5431 19.9159H16.0354C16.1699 19.919 16.3 19.8668 16.3962 19.7712C16.4924 19.6756 16.5465 19.5447 16.5465 19.4079C16.5465 19.2713 16.4924 19.1403 16.3962 19.0447C16.3 18.9491 16.1699 18.8969 16.0354 18.8999H12.5431ZM20.3036 19.4892C20.3818 19.4893 20.4588 19.5017 20.5322 19.5239C20.527 19.5355 20.5246 19.548 20.5196 19.5596C20.4818 19.6448 20.4545 19.7351 20.4298 19.8265C20.4216 19.8565 20.409 19.8845 20.4024 19.9149C20.3748 20.0414 20.3584 20.1713 20.3584 20.3059C20.3584 20.4404 20.3748 20.5703 20.4024 20.6967C20.409 20.7271 20.4217 20.7551 20.4298 20.7851C20.4545 20.8764 20.4817 20.9669 20.5196 21.052C20.5247 21.0636 20.527 21.0763 20.5322 21.0877C20.4588 21.11 20.3818 21.1224 20.3036 21.1224C19.8541 21.1223 19.5001 20.7626 19.5 20.3059C19.5001 19.8491 19.8541 19.4894 20.3036 19.4893V19.4892ZM22.161 19.4892C22.6108 19.4892 22.9647 19.8488 22.9647 20.3058C22.9647 20.7627 22.6108 21.1223 22.161 21.1223C21.9463 21.1223 21.7551 21.0384 21.6122 20.903V20.9031C21.6048 20.8943 21.5969 20.8857 21.5888 20.8774C21.4782 20.7631 21.4034 20.6194 21.3729 20.4646C21.3629 20.4129 21.3584 20.3594 21.3582 20.3059C21.3584 20.0917 21.4408 19.887 21.5887 19.7343C21.5962 19.7266 21.6033 19.7187 21.6102 19.7105C21.7533 19.574 21.9453 19.4893 22.161 19.4893L22.161 19.4892ZM12.4951 20.426C12.3163 20.4346 12.1557 20.5396 12.0736 20.7013C11.9916 20.8629 12.0008 21.0568 12.0975 21.2098C12.1944 21.3627 12.3642 21.4516 12.543 21.443H14.0341C14.2129 21.443 14.3782 21.3461 14.4676 21.1887C14.557 21.0314 14.557 20.8375 14.4676 20.6802C14.3782 20.5228 14.2129 20.426 14.0341 20.426H12.543C12.527 20.4252 12.511 20.4252 12.4951 20.426Z"/>
</mask>
<path d="M11.7461 12.0001C10.7889 12.0001 10 12.7977 10 13.7702V22.2299C10 23.2024 10.7889 24 11.7461 24L24.2588 23.9999C25.216 23.9999 26 23.2023 26 22.2298V13.7701C26 12.7976 25.216 12 24.2588 12L11.7461 12.0001ZM11.7461 13.0122H24.2588C24.6793 13.0122 25 13.343 25 13.7702V14.5124H11.0001V13.7702C11.0001 13.343 11.3258 13.0122 11.7462 13.0122H11.7461ZM11 15.5284H24.9999V16.1664H11V15.5284ZM11 17.1824H24.9999V22.2297C24.9999 22.6569 24.6791 22.9838 24.2587 22.9838H11.746C11.3255 22.9838 10.9999 22.6569 10.9999 22.2297L11 17.1824ZM20.3036 18.4742C19.3138 18.4743 18.501 19.3002 18.5009 20.3059C18.501 21.3116 19.3138 22.1374 20.3036 22.1375C20.6351 22.1373 20.9544 22.0382 21.2333 21.8666C21.5058 22.0352 21.8213 22.1386 22.1611 22.1386C23.151 22.1386 23.9648 21.3118 23.9648 20.306C23.9648 19.3002 23.1511 18.4743 22.1611 18.4743C21.8214 18.4743 21.5057 18.5767 21.2333 18.7452C20.9544 18.5738 20.6351 18.4745 20.3036 18.4743V18.4742ZM12.5431 18.8999C12.4086 18.8969 12.2785 18.9491 12.1823 19.0447C12.0861 19.1403 12.032 19.2712 12.032 19.4079C12.032 19.5446 12.0861 19.6756 12.1823 19.7712C12.2785 19.8668 12.4086 19.919 12.5431 19.9159H16.0354C16.1699 19.919 16.3 19.8668 16.3962 19.7712C16.4924 19.6756 16.5465 19.5447 16.5465 19.4079C16.5465 19.2713 16.4924 19.1403 16.3962 19.0447C16.3 18.9491 16.1699 18.8969 16.0354 18.8999H12.5431ZM20.3036 19.4892C20.3818 19.4893 20.4588 19.5017 20.5322 19.5239C20.527 19.5355 20.5246 19.548 20.5196 19.5596C20.4818 19.6448 20.4545 19.7351 20.4298 19.8265C20.4216 19.8565 20.409 19.8845 20.4024 19.9149C20.3748 20.0414 20.3584 20.1713 20.3584 20.3059C20.3584 20.4404 20.3748 20.5703 20.4024 20.6967C20.409 20.7271 20.4217 20.7551 20.4298 20.7851C20.4545 20.8764 20.4817 20.9669 20.5196 21.052C20.5247 21.0636 20.527 21.0763 20.5322 21.0877C20.4588 21.11 20.3818 21.1224 20.3036 21.1224C19.8541 21.1223 19.5001 20.7626 19.5 20.3059C19.5001 19.8491 19.8541 19.4894 20.3036 19.4893V19.4892ZM22.161 19.4892C22.6108 19.4892 22.9647 19.8488 22.9647 20.3058C22.9647 20.7627 22.6108 21.1223 22.161 21.1223C21.9463 21.1223 21.7551 21.0384 21.6122 20.903V20.9031C21.6048 20.8943 21.5969 20.8857 21.5888 20.8774C21.4782 20.7631 21.4034 20.6194 21.3729 20.4646C21.3629 20.4129 21.3584 20.3594 21.3582 20.3059C21.3584 20.0917 21.4408 19.887 21.5887 19.7343C21.5962 19.7266 21.6033 19.7187 21.6102 19.7105C21.7533 19.574 21.9453 19.4893 22.161 19.4893L22.161 19.4892ZM12.4951 20.426C12.3163 20.4346 12.1557 20.5396 12.0736 20.7013C11.9916 20.8629 12.0008 21.0568 12.0975 21.2098C12.1944 21.3627 12.3642 21.4516 12.543 21.443H14.0341C14.2129 21.443 14.3782 21.3461 14.4676 21.1887C14.557 21.0314 14.557 20.8375 14.4676 20.6802C14.3782 20.5228 14.2129 20.426 14.0341 20.426H12.543C12.527 20.4252 12.511 20.4252 12.4951 20.426Z" fill="white"/>
<path d="M12.3951 20.4258V20.426H12.5951V20.4258H12.3951ZM11.7461 12.0001V12.2001H11.7461L11.7461 12.0001ZM11.7461 24V24.2H11.7461L11.7461 24ZM24.2588 23.9999V23.7999H24.2588L24.2588 23.9999ZM24.2588 12V11.8H24.2588L24.2588 12ZM25 14.5124V14.7124H25.2V14.5124H25ZM11.0001 14.5124H10.8001V14.7124H11.0001V14.5124ZM11 15.5284V15.3284H10.8V15.5284H11ZM24.9999 15.5284H25.1999V15.3284H24.9999V15.5284ZM24.9999 16.1664V16.3664H25.1999V16.1664H24.9999ZM11 16.1664H10.8V16.3664H11V16.1664ZM11 17.1824V16.9824H10.8L10.8 17.1824L11 17.1824ZM24.9999 17.1824H25.1999V16.9824H24.9999V17.1824ZM10.9999 22.2297L10.7999 22.2297V22.2297H10.9999ZM20.3036 18.4742H20.5036V18.2742L20.3036 18.2742L20.3036 18.4742ZM18.5009 20.3059L18.3009 20.3058V20.3059L18.5009 20.3059ZM20.3036 22.1375L20.3036 22.3375H20.3038L20.3036 22.1375ZM21.2333 21.8666L21.3385 21.6966L21.2336 21.6317L21.1285 21.6963L21.2333 21.8666ZM21.2333 18.7452L21.1286 18.9156L21.2336 18.9802L21.3385 18.9153L21.2333 18.7452ZM20.3036 18.4743H20.1036V18.6742L20.3035 18.6743L20.3036 18.4743ZM12.5431 18.8999L12.5387 19.0999H12.5431V18.8999ZM12.5431 19.9159V19.7159L12.5386 19.716L12.5431 19.9159ZM16.0354 19.9159L16.0399 19.7159H16.0354V19.9159ZM16.0354 18.8999V19.0999L16.0398 19.0998L16.0354 18.8999ZM20.3036 19.4892L20.3039 19.2892L20.1036 19.2889V19.4892H20.3036ZM20.5322 19.5239L20.7144 19.6065L20.8086 19.3986L20.5901 19.3325L20.5322 19.5239ZM20.5196 19.5596L20.7024 19.6408L20.7031 19.6393L20.5196 19.5596ZM20.4298 19.8265L20.6227 19.8791L20.6228 19.8789L20.4298 19.8265ZM20.4024 19.9149L20.5978 19.9574L20.5979 19.9572L20.4024 19.9149ZM20.4024 20.6967L20.5979 20.6544L20.5978 20.6541L20.4024 20.6967ZM20.4298 20.7851L20.2366 20.8369L20.2367 20.8375L20.4298 20.7851ZM20.5196 21.052L20.7024 20.9709L20.7023 20.9706L20.5196 21.052ZM20.5322 21.0877L20.5901 21.2792L20.8095 21.2128L20.714 21.0045L20.5322 21.0877ZM20.3036 21.1224L20.3036 21.3224H20.3036V21.1224ZM19.5 20.3059L19.3 20.3058V20.3059L19.5 20.3059ZM20.3036 19.4893L20.3037 19.6893L20.5036 19.6893V19.4893H20.3036ZM22.161 19.4892V19.2892H21.98L21.962 19.4692L22.161 19.4892ZM21.6122 20.903L21.7498 20.7578L21.4122 20.4379V20.903H21.6122ZM21.6122 20.9031L21.4595 21.0322L21.8122 21.4495V20.9031H21.6122ZM21.5888 20.8774L21.4451 21.0165L21.4463 21.0177L21.5888 20.8774ZM21.3729 20.4646L21.1766 20.5028L21.1767 20.5032L21.3729 20.4646ZM21.3582 20.3059L21.1582 20.3057L21.1582 20.3067L21.3582 20.3059ZM21.5887 19.7343L21.4451 19.5951L21.445 19.5952L21.5887 19.7343ZM21.6102 19.7105L21.4722 19.5658L21.4645 19.5731L21.4576 19.5812L21.6102 19.7105ZM22.161 19.4893V19.6893H22.3419L22.36 19.5092L22.161 19.4893ZM12.4951 20.426L12.5047 20.6257L12.505 20.6257L12.4951 20.426ZM12.0736 20.7013L12.252 20.7918L12.252 20.7918L12.0736 20.7013ZM12.0975 21.2098L11.9285 21.3167L11.9286 21.3168L12.0975 21.2098ZM12.543 21.443V21.2428L12.5333 21.2432L12.543 21.443ZM14.4676 21.1887L14.2937 21.0898L14.2937 21.0899L14.4676 21.1887ZM14.4676 20.6802L14.2937 20.779L14.2937 20.779L14.4676 20.6802ZM12.543 20.426L12.533 20.626H12.543V20.426ZM11.7461 11.8001C10.6761 11.8001 9.8 12.6897 9.8 13.7702H10.2C10.2 12.9058 10.9018 12.2001 11.7461 12.2001V11.8001ZM9.8 13.7702V22.2299H10.2V13.7702H9.8ZM9.8 22.2299C9.8 23.3104 10.6761 24.2 11.7461 24.2V23.8C10.9018 23.8 10.2 23.0943 10.2 22.2299H9.8ZM11.7461 24.2L24.2588 24.1999L24.2588 23.7999L11.7461 23.8L11.7461 24.2ZM24.2588 24.1999C25.3296 24.1999 26.2 23.3095 26.2 22.2298H25.8C25.8 23.095 25.1024 23.7999 24.2588 23.7999V24.1999ZM26.2 22.2298V13.7701H25.8V22.2298H26.2ZM26.2 13.7701C26.2 12.6903 25.3296 11.8 24.2588 11.8V12.2C25.1024 12.2 25.8 12.9049 25.8 13.7701H26.2ZM24.2588 11.8L11.7461 11.8001L11.7461 12.2001L24.2588 12.2L24.2588 11.8ZM11.7461 13.2122H24.2588V12.8122H11.7461V13.2122ZM24.2588 13.2122C24.5641 13.2122 24.8 13.4487 24.8 13.7702H25.2C25.2 13.2373 24.7944 12.8122 24.2588 12.8122V13.2122ZM24.8 13.7702V14.5124H25.2V13.7702H24.8ZM25 14.3124H11.0001V14.7124H25V14.3124ZM11.2001 14.5124V13.7702H10.8001V14.5124H11.2001ZM11.2001 13.7702C11.2001 13.4505 11.4392 13.2122 11.7462 13.2122V12.8122C11.2123 12.8122 10.8001 13.2356 10.8001 13.7702H11.2001ZM11.7462 12.8122H11.7461V13.2122H11.7462V12.8122ZM11 15.7284H24.9999V15.3284H11V15.7284ZM24.7999 15.5284V16.1664H25.1999V15.5284H24.7999ZM24.9999 15.9664H11V16.3664H24.9999V15.9664ZM11.2 16.1664V15.5284H10.8V16.1664H11.2ZM11 17.3824H24.9999V16.9824H11V17.3824ZM24.7999 17.1824V22.2297H25.1999V17.1824H24.7999ZM24.7999 22.2297C24.7999 22.5498 24.5653 22.7838 24.2587 22.7838V23.1838C24.7929 23.1838 25.1999 22.7639 25.1999 22.2297H24.7999ZM24.2587 22.7838H11.746V23.1838H24.2587V22.7838ZM11.746 22.7838C11.4376 22.7838 11.1999 22.548 11.1999 22.2297H10.7999C10.7999 22.7657 11.2135 23.1838 11.746 23.1838V22.7838ZM11.1999 22.2297L11.2 17.1824L10.8 17.1824L10.7999 22.2297L11.1999 22.2297ZM20.3036 18.2742C19.2003 18.2743 18.301 19.1927 18.3009 20.3058L18.7009 20.3059C18.701 19.4076 19.4272 18.6743 20.3037 18.6742L20.3036 18.2742ZM18.3009 20.3059C18.301 21.419 19.2003 22.3374 20.3036 22.3375L20.3037 21.9375C19.4272 21.9374 18.701 21.2041 18.7009 20.3058L18.3009 20.3059ZM20.3038 22.3375C20.6755 22.3373 21.0306 22.2262 21.3381 22.037L21.1285 21.6963C20.8782 21.8503 20.5948 21.9374 20.3035 21.9375L20.3038 22.3375ZM21.1281 22.0367C21.4282 22.2224 21.7797 22.3386 22.1611 22.3386V21.9386C21.8628 21.9386 21.5833 21.8479 21.3385 21.6966L21.1281 22.0367ZM22.1611 22.3386C23.2645 22.3386 24.1648 21.4193 24.1648 20.306H23.7648C23.7648 21.2044 23.0376 21.9386 22.1611 21.9386V22.3386ZM24.1648 20.306C24.1648 19.1926 23.2644 18.2743 22.1611 18.2743V18.6743C23.0378 18.6743 23.7648 19.4077 23.7648 20.306H24.1648ZM22.1611 18.2743C21.7802 18.2743 21.4286 18.3893 21.1281 18.5751L21.3385 18.9153C21.5829 18.7642 21.8625 18.6743 22.1611 18.6743V18.2743ZM21.3381 18.5748C21.0306 18.3858 20.6755 18.2746 20.3038 18.2743L20.3035 18.6743C20.5947 18.6745 20.8782 18.7617 21.1286 18.9156L21.3381 18.5748ZM20.5036 18.4743V18.4742H20.1036V18.4743H20.5036ZM12.5475 18.6999C12.3583 18.6958 12.1758 18.7692 12.0413 18.9028L12.3233 19.1866C12.3812 19.129 12.459 19.0981 12.5387 19.0998L12.5475 18.6999ZM12.0413 18.9028C11.9069 19.0364 11.832 19.2186 11.832 19.4079H12.232C12.232 19.3239 12.2653 19.2442 12.3233 19.1866L12.0413 18.9028ZM11.832 19.4079C11.832 19.5973 11.9069 19.7795 12.0413 19.9131L12.3233 19.6294C12.2653 19.5717 12.232 19.492 12.232 19.4079H11.832ZM12.0413 19.9131C12.1758 20.0467 12.3583 20.1202 12.5477 20.1159L12.5386 19.716C12.4589 19.7178 12.3812 19.6869 12.3233 19.6294L12.0413 19.9131ZM12.5431 20.1159H16.0354V19.7159H12.5431V20.1159ZM16.0308 20.1159C16.2202 20.1202 16.4027 20.0467 16.5372 19.9131L16.2552 19.6293C16.1973 19.6869 16.1196 19.7178 16.0399 19.716L16.0308 20.1159ZM16.5372 19.9131C16.6716 19.7795 16.7465 19.5973 16.7465 19.4079H16.3465C16.3465 19.492 16.3132 19.5717 16.2552 19.6293L16.5372 19.9131ZM16.7465 19.4079C16.7465 19.2186 16.6716 19.0364 16.5372 18.9028L16.2552 19.1865C16.3133 19.2442 16.3465 19.3239 16.3465 19.4079H16.7465ZM16.5372 18.9028C16.4027 18.7692 16.2202 18.6958 16.031 18.6999L16.0398 19.0998C16.1195 19.0981 16.1973 19.129 16.2552 19.1865L16.5372 18.9028ZM16.0354 18.6999H12.5431V19.0999H16.0354V18.6999ZM20.3034 19.6892C20.3606 19.6893 20.4182 19.6983 20.4743 19.7153L20.5901 19.3325C20.4994 19.305 20.4029 19.2893 20.3039 19.2892L20.3034 19.6892ZM20.3501 19.4413C20.3455 19.4514 20.3421 19.4604 20.3398 19.4672C20.3375 19.4737 20.3357 19.4797 20.3348 19.4826C20.3342 19.4844 20.3339 19.4853 20.3337 19.4861C20.3334 19.4869 20.3334 19.487 20.3334 19.4868C20.3336 19.4865 20.3345 19.4839 20.3361 19.48L20.7031 19.6393C20.7073 19.6296 20.7103 19.621 20.7125 19.6147C20.7144 19.6088 20.7162 19.6031 20.7169 19.6009C20.7179 19.5977 20.7179 19.5977 20.7177 19.5983C20.7174 19.5991 20.7163 19.6022 20.7144 19.6065L20.3501 19.4413ZM20.3368 19.4784C20.2926 19.578 20.2622 19.6804 20.2367 19.7742L20.6228 19.8789C20.6469 19.7899 20.6709 19.7115 20.7024 19.6408L20.3368 19.4784ZM20.2368 19.774C20.2349 19.781 20.2326 19.7874 20.2263 19.8056C20.2211 19.8207 20.2129 19.8449 20.2069 19.8725L20.5979 19.9572C20.5985 19.9544 20.5999 19.9494 20.6047 19.9355C20.6084 19.9246 20.6165 19.902 20.6227 19.8791L20.2368 19.774ZM20.207 19.8723C20.1769 20.0106 20.1584 20.1548 20.1584 20.3059H20.5584C20.5584 20.1877 20.5728 20.0722 20.5978 19.9574L20.207 19.8723ZM20.1584 20.3059C20.1584 20.4568 20.1769 20.6011 20.207 20.7394L20.5978 20.6541C20.5728 20.5395 20.5584 20.4239 20.5584 20.3059H20.1584ZM20.2069 20.7391C20.213 20.7669 20.2213 20.7912 20.2264 20.8062C20.2327 20.8243 20.2348 20.8304 20.2366 20.8369L20.6229 20.7332C20.6166 20.7098 20.6084 20.687 20.6046 20.676C20.5998 20.6619 20.5984 20.657 20.5979 20.6544L20.2069 20.7391ZM20.2367 20.8375C20.2621 20.9309 20.2924 21.0336 20.3369 21.1334L20.7023 20.9706C20.6709 20.9001 20.647 20.8218 20.6228 20.7327L20.2367 20.8375ZM20.3368 21.1332C20.3348 21.1287 20.3338 21.1256 20.3335 21.1249C20.3335 21.1247 20.3335 21.1248 20.3346 21.1285C20.3355 21.1313 20.3374 21.1374 20.3397 21.1441C20.3421 21.1511 20.3455 21.1605 20.3504 21.171L20.714 21.0045C20.7163 21.0093 20.7175 21.0128 20.7178 21.0138C20.7181 21.0145 20.7181 21.0146 20.7171 21.0113C20.7164 21.009 20.7146 21.003 20.7125 20.9968C20.7102 20.9902 20.7069 20.9811 20.7024 20.9709L20.3368 21.1332ZM20.4743 20.8963C20.418 20.9133 20.3605 20.9224 20.3036 20.9224V21.3224C20.403 21.3224 20.4996 21.3066 20.5901 21.2792L20.4743 20.8963ZM20.3037 20.9224C19.9676 20.9223 19.7 20.6552 19.7 20.3058L19.3 20.3059C19.3001 20.8701 19.7406 21.3223 20.3036 21.3224L20.3037 20.9224ZM19.7 20.3059C19.7 19.9566 19.9676 19.6894 20.3037 19.6893L20.3036 19.2893C19.7407 19.2895 19.3001 19.7417 19.3 20.3058L19.7 20.3059ZM20.5036 19.4893V19.4892H20.1036V19.4893H20.5036ZM22.161 19.6892C22.4973 19.6892 22.7647 19.9562 22.7647 20.3058H23.1647C23.1647 19.7413 22.7242 19.2892 22.161 19.2892V19.6892ZM22.7647 20.3058C22.7647 20.6553 22.4973 20.9223 22.161 20.9223V21.3223C22.7242 21.3223 23.1647 20.8702 23.1647 20.3058H22.7647ZM22.161 20.9223C22.0002 20.9223 21.8575 20.86 21.7498 20.7578L21.4747 21.0482C21.6526 21.2169 21.8924 21.3223 22.161 21.3223V20.9223ZM21.4122 20.903V20.9031H21.8122V20.903H21.4122ZM21.765 20.774C21.7545 20.7616 21.7433 20.7493 21.7313 20.7371L21.4463 21.0177C21.4506 21.0221 21.455 21.0269 21.4595 21.0322L21.765 20.774ZM21.7325 20.7383C21.6488 20.6518 21.5922 20.543 21.5692 20.426L21.1767 20.5032C21.2146 20.6958 21.3076 20.8744 21.4451 21.0165L21.7325 20.7383ZM21.5693 20.4265C21.562 20.389 21.5584 20.3482 21.5582 20.305L21.1582 20.3067C21.1585 20.3706 21.1638 20.4368 21.1766 20.5028L21.5693 20.4265ZM21.5582 20.3061C21.5584 20.1431 21.621 19.9884 21.7323 19.8735L21.445 19.5952C21.2606 19.7855 21.1585 20.0402 21.1582 20.3057L21.5582 20.3061ZM21.7323 19.8736C21.7432 19.8623 21.7533 19.851 21.7628 19.8398L21.4576 19.5812C21.4533 19.5864 21.4491 19.5909 21.4451 19.5951L21.7323 19.8736ZM21.7483 19.8552C21.8562 19.7522 21.9995 19.6893 22.161 19.6893V19.2893C21.8911 19.2893 21.6504 19.3958 21.4722 19.5658L21.7483 19.8552ZM22.36 19.5092L22.36 19.5091L21.962 19.4692L21.962 19.4693L22.36 19.5092ZM12.4854 20.2262C12.2336 20.2383 12.0093 20.3861 11.8953 20.6108L12.252 20.7918C12.3021 20.693 12.3989 20.6308 12.5047 20.6257L12.4854 20.2262ZM11.8953 20.6108C11.7814 20.8352 11.794 21.1041 11.9285 21.3167L12.2666 21.1028C12.2075 21.0095 12.2018 20.8906 12.252 20.7918L11.8953 20.6108ZM11.9286 21.3168C12.0634 21.5297 12.3009 21.6549 12.5526 21.6428L12.5333 21.2432C12.4274 21.2483 12.3254 21.1958 12.2665 21.1028L11.9286 21.3168ZM12.543 21.643H14.0341V21.243H12.543V21.643ZM14.0341 21.643C14.2859 21.643 14.5171 21.5065 14.6415 21.2874L14.2937 21.0899C14.2393 21.1856 14.1399 21.243 14.0341 21.243V21.643ZM14.6415 21.2875C14.7657 21.0689 14.7657 20.7999 14.6415 20.5814L14.2937 20.779C14.3483 20.875 14.3483 20.9938 14.2937 21.0898L14.6415 21.2875ZM14.6415 20.5814C14.5171 20.3623 14.2858 20.226 14.0341 20.226V20.626C14.14 20.626 14.2393 20.6833 14.2937 20.779L14.6415 20.5814ZM14.0341 20.226H12.543V20.626H14.0341V20.226ZM12.5529 20.2262C12.5303 20.2251 12.5077 20.2251 12.4851 20.2262L12.505 20.6257C12.5143 20.6252 12.5236 20.6252 12.533 20.6257L12.5529 20.2262Z" fill="#F26321" mask="url(#path-3-inside-1_6134_57421)"/>
</svg>
