<svg width="24" height="24" viewBox="0 0 24 24" fill="none" xmlns="http://www.w3.org/2000/svg">
<g id="Change Icon">
<path id="Vector" d="M8.15439 17.0569V19.4104C8.17225 19.5889 8.10143 19.7645 7.96569 19.8782C7.82994 19.9922 7.64754 20.0291 7.47964 19.9765C7.3418 19.919 7.21824 19.8306 7.11821 19.7181C6.28671 18.8722 5.45839 18.02 4.62689 17.1709L2.21686 14.7096C2.08048 14.6064 2 14.4431 2 14.2697C2 14.0963 2.08048 13.933 2.21686 13.8298C3.85758 12.148 5.49938 10.4651 7.1422 8.7813C7.30464 8.56542 7.58622 8.48408 7.83524 8.5813C8.06806 8.69633 8.1994 8.95406 8.15758 9.215V11.187V11.4762H16.1224H16.3875C16.5309 11.4758 16.6679 11.5363 16.766 11.643C16.8643 11.7497 16.9148 11.8932 16.9055 12.0391V13.5066L20.602 9.78413L16.9055 6.00934V7.34756C16.9055 7.91044 16.7278 8.0952 16.1675 8.0952H12.158C12.0063 8.09627 11.8562 8.06365 11.7182 7.9997C11.5141 7.89562 11.4135 7.65634 11.4801 7.43357C11.5108 7.21468 11.681 7.04343 11.8959 7.01532C11.9955 7.00051 12.0964 6.9945 12.1971 6.99686H15.812V6.70458V4.68327C15.7548 4.41567 15.8944 4.14484 16.1427 4.04161C16.3911 3.93838 16.6763 4.03259 16.8183 4.26479C18.4753 5.95691 20.1322 7.64903 21.7888 9.34088V9.34109C21.922 9.44775 22 9.61106 22 9.78403C22 9.95699 21.922 10.1203 21.7888 10.227C20.13 11.9191 18.4731 13.6101 16.8183 15.3003C16.6647 15.4984 16.4004 15.5671 16.1728 15.4677C15.9454 15.3685 15.8112 15.1258 15.8452 14.8756V12.8513V12.5837H7.8503C7.26594 12.5837 7.08207 12.3961 7.08207 11.8053L7.08228 10.5193L3.38898 14.291L7.06716 18.0474V18.0476C7.06989 17.9974 7.06989 17.9469 7.06716 17.8967V16.5647C7.04972 16.3999 7.10477 16.2357 7.21783 16.1169C7.33088 15.9977 7.48974 15.9364 7.65154 15.9492H11.9263C12.0793 15.9351 12.231 15.9879 12.3438 16.0945C12.4565 16.2012 12.5197 16.3516 12.5176 16.5085C12.5153 16.6656 12.4481 16.8141 12.3325 16.9175C12.2169 17.0207 12.0637 17.0692 11.9112 17.0508H8.48303L8.15439 17.0569Z" fill="#F26321"/>
</g>
</svg>
