<svg width="24" height="24" viewBox="0 0 24 24" fill="none" xmlns="http://www.w3.org/2000/svg">
<path d="M21.9809 21.603L19.0512 13.8854C19.0269 13.8213 18.9808 13.7678 18.9211 13.7342L15.8006 11.9761L16.7117 10.5316C17.2708 9.64433 17.5664 8.61898 17.5664 7.5664C17.5664 4.49707 15.0693 2 12 2C8.93065 2 6.43358 4.49707 6.43358 7.5664C6.43358 8.61925 6.72928 9.64464 7.28873 10.5317C7.30369 10.5555 8.19955 11.9762 8.19955 11.9762L5.07889 13.7342C5.01917 13.7678 4.97311 13.8213 4.94877 13.8854L2.01909 21.603C1.9753 21.7183 2.00847 21.8487 2.10194 21.9291C2.19554 22.0096 2.32932 22.0228 2.43679 21.9622L7.14647 19.3089L11.8561 21.9622C11.9454 22.0125 12.0545 22.0125 12.1438 21.9622L16.8534 19.3089L21.5631 21.9622C21.6081 21.9876 21.6576 22 21.7069 22C21.7755 22 21.8436 21.976 21.898 21.9292C21.9916 21.8487 22.0247 21.7183 21.9809 21.603ZM12.293 17.184C12.4763 17.1193 12.6352 16.9947 12.743 16.824C12.7579 16.8005 15.252 12.8461 15.252 12.8461L16.5222 18.823L12.293 21.2056V17.184ZM7.78436 10.2191C7.28401 9.42569 7.01955 8.50843 7.01955 7.56636C7.01955 4.82011 9.25377 2.5859 12 2.5859C14.7463 2.5859 16.9805 4.82011 16.9805 7.56636C16.9805 8.50823 16.7161 9.42558 16.2161 10.2191C16.177 10.281 12.3167 16.4026 12.2494 16.5083C12.2488 16.5092 12.2482 16.5102 12.2476 16.5111C12.1933 16.597 12.1008 16.6484 12 16.6484C11.8992 16.6484 11.8062 16.5968 11.7518 16.5112C11.7127 16.4492 7.84475 10.3155 7.78569 10.2212C7.78526 10.2205 7.78479 10.2198 7.78436 10.2191ZM5.45889 14.1926L8.18998 12.654L7.7142 14.8924C7.68057 15.0507 7.78158 15.2063 7.93983 15.2399C7.96037 15.2443 7.98088 15.2464 8.00104 15.2464C8.13639 15.2464 8.25803 15.152 8.28729 15.0143L8.74811 12.8463L11.2567 16.8247C11.365 16.995 11.524 17.1194 11.707 17.184V21.2057L7.4778 18.823L8.04369 16.1605C8.07733 16.0022 7.97631 15.8467 7.81807 15.813C7.65963 15.7792 7.5042 15.8805 7.47057 16.0387L6.88741 18.7822L2.85397 21.0547L5.45889 14.1926ZM17.1126 18.7823L15.8101 12.654L18.5411 14.1926L21.1461 21.0547L17.1126 18.7823Z" fill="#303030"/>
<path d="M15.2227 7.56641C15.2227 5.78945 13.777 4.34375 12 4.34375C10.223 4.34375 8.77734 5.78945 8.77734 7.56641C8.77734 9.34336 10.223 10.7891 12 10.7891C13.777 10.7891 15.2227 9.34336 15.2227 7.56641ZM9.36328 7.56641C9.36328 6.1125 10.5461 4.92969 12 4.92969C13.4539 4.92969 14.6367 6.1125 14.6367 7.56641C14.6367 9.02032 13.4539 10.2031 12 10.2031C10.5461 10.2031 9.36328 9.02032 9.36328 7.56641Z" fill="#F26321"/>
<path d="M14.0508 7.56641C14.0508 6.43563 13.1308 5.51562 12 5.51562C10.8692 5.51562 9.94922 6.43563 9.94922 7.56641C9.94922 8.69719 10.8692 9.61719 12 9.61719C13.1308 9.61719 14.0508 8.69719 14.0508 7.56641ZM10.5352 7.56641C10.5352 6.75867 11.1923 6.10156 12 6.10156C12.8077 6.10156 13.4648 6.75867 13.4648 7.56641C13.4648 8.37414 12.8077 9.03125 12 9.03125C11.1923 9.03125 10.5352 8.37414 10.5352 7.56641Z" fill="#F26321"/>
</svg>
