<svg width="36" height="36" viewBox="0 0 36 36" fill="none" xmlns="http://www.w3.org/2000/svg">
<rect width="36" height="36" rx="18" fill="#F26321"/>
<rect x="4" y="4" width="28" height="28" rx="14" fill="#F26321"/>
<path d="M26.9828 26.6427L24.3461 19.6969C24.3242 19.6392 24.2827 19.591 24.229 19.5607L21.4205 17.9785L22.2405 16.6784C22.7437 15.8799 23.0097 14.9571 23.0097 14.0098C23.0097 11.2474 20.7624 9 18 9C15.2376 9 12.9902 11.2474 12.9902 14.0098C12.9902 14.9573 13.2564 15.8802 13.7599 16.6785C13.7733 16.6999 14.5796 17.9786 14.5796 17.9786L11.771 19.5607C11.7172 19.591 11.6758 19.6392 11.6539 19.6969L9.01718 26.6427C8.97777 26.7465 9.00762 26.8638 9.09175 26.9362C9.17598 27.0086 9.29639 27.0205 9.39311 26.966L13.6318 24.578L17.8705 26.966C17.9509 27.0113 18.0491 27.0113 18.1294 26.966L22.3681 24.578L26.6068 26.966C26.6472 26.9888 26.6919 27 26.7362 27C26.798 27 26.8592 26.9784 26.9082 26.9362C26.9924 26.8638 27.0222 26.7465 26.9828 26.6427V26.6427ZM18.2637 22.6656C18.4286 22.6074 18.5717 22.4952 18.6687 22.3416C18.6821 22.3205 20.9268 18.7615 20.9268 18.7615L22.07 24.1407L18.2637 26.285V22.6656ZM14.2059 16.3971C13.7556 15.6831 13.5176 14.8576 13.5176 14.0097C13.5176 11.5381 15.5284 9.52731 18 9.52731C20.4716 9.52731 22.4824 11.5381 22.4824 14.0097C22.4824 14.8574 22.2445 15.683 21.7945 16.3971C21.7593 16.4529 18.2851 21.9623 18.2245 22.0575C18.2239 22.0583 18.2234 22.0592 18.2229 22.06C18.174 22.1373 18.0907 22.1835 18 22.1835C17.9093 22.1835 17.8256 22.1371 17.7766 22.0601C17.7414 22.0042 14.2603 16.4839 14.2071 16.3991C14.2067 16.3984 14.2063 16.3978 14.2059 16.3971V16.3971ZM12.113 19.9733L14.571 18.5886L14.1428 20.6032C14.1125 20.7457 14.2034 20.8856 14.3458 20.916C14.3643 20.9199 14.3828 20.9218 14.4009 20.9218C14.5227 20.9218 14.6322 20.8368 14.6586 20.7129L15.0733 18.7616L17.3311 22.3423C17.4285 22.4955 17.5716 22.6074 17.7363 22.6656V26.2851L13.93 24.1407L14.4393 21.7445C14.4696 21.602 14.3787 21.462 14.2363 21.4317C14.0937 21.4013 13.9538 21.4924 13.9235 21.6348L13.3987 24.104L9.76857 26.1492L12.113 19.9733ZM22.6013 24.1041L21.4291 18.5886L23.887 19.9733L26.2315 26.1492L22.6013 24.1041Z" fill="white"/>
<path d="M20.9023 14.0098C20.9023 12.4105 19.6012 11.1094 18.002 11.1094C16.4027 11.1094 15.1016 12.4105 15.1016 14.0098C15.1016 15.609 16.4027 16.9102 18.002 16.9102C19.6012 16.9102 20.9023 15.609 20.9023 14.0098ZM15.6289 14.0098C15.6289 12.7013 16.6934 11.6367 18.002 11.6367C19.3105 11.6367 20.375 12.7013 20.375 14.0098C20.375 15.3183 19.3105 16.3828 18.002 16.3828C16.6934 16.3828 15.6289 15.3183 15.6289 14.0098Z" fill="white"/>
<path d="M19.8477 14.0098C19.8477 12.9921 19.0197 12.1641 18.002 12.1641C16.9843 12.1641 16.1562 12.9921 16.1562 14.0098C16.1562 15.0275 16.9843 15.8555 18.002 15.8555C19.0197 15.8555 19.8477 15.0275 19.8477 14.0098ZM16.6836 14.0098C16.6836 13.2828 17.275 12.6914 18.002 12.6914C18.7289 12.6914 19.3203 13.2828 19.3203 14.0098C19.3203 14.7367 18.7289 15.3281 18.002 15.3281C17.275 15.3281 16.6836 14.7367 16.6836 14.0098Z" fill="white"/>
</svg>
