<svg width="36" height="36" viewBox="0 0 36 36" fill="none" xmlns="http://www.w3.org/2000/svg">
<rect width="36" height="36" rx="18" fill="white"/>
<rect x="3.5" y="3.5" width="29" height="29" rx="14.5" fill="white"/>
<path fill-rule="evenodd" clip-rule="evenodd" d="M12.375 13.1797C12.375 12.9726 12.5429 12.8047 12.75 12.8047H15.5625C15.7696 12.8047 15.9375 12.9726 15.9375 13.1797C15.9375 13.3868 15.7696 13.5547 15.5625 13.5547H12.75C12.5429 13.5547 12.375 13.3868 12.375 13.1797Z" fill="#303030"/>
<path fill-rule="evenodd" clip-rule="evenodd" d="M21.2578 13.1797C21.2578 12.9726 21.4257 12.8047 21.6328 12.8047H23.9995C24.2066 12.8047 24.3745 12.9726 24.3745 13.1797C24.3745 13.3868 24.2066 13.5547 23.9995 13.5547H21.6328C21.4257 13.5547 21.2578 13.3868 21.2578 13.1797Z" fill="#303030"/>
<path fill-rule="evenodd" clip-rule="evenodd" d="M18.5478 15.1737C19.8384 15.1737 20.8847 14.1275 20.8847 12.8369C20.8847 11.5463 19.8384 10.5 18.5478 10.5C17.2572 10.5 16.2109 11.5463 16.2109 12.8369C16.2109 14.1275 17.2572 15.1737 18.5478 15.1737ZM18.5478 15.9237C20.2526 15.9237 21.6347 14.5417 21.6347 12.8369C21.6347 11.132 20.2526 9.75 18.5478 9.75C16.843 9.75 15.4609 11.132 15.4609 12.8369C15.4609 14.5417 16.843 15.9237 18.5478 15.9237Z" fill="#303030"/>
<path fill-rule="evenodd" clip-rule="evenodd" d="M19.7343 24.5156V20.2969C19.7343 19.5461 19.1257 18.9375 18.375 18.9375C17.6242 18.9375 17.0156 19.5461 17.0156 20.2969V24.5156C17.0156 25.2663 17.6242 25.8749 18.375 25.8749C19.1257 25.8749 19.7343 25.2663 19.7343 24.5156ZM18.375 18.1875C17.21 18.1875 16.2656 19.1319 16.2656 20.2969V24.5156C16.2656 25.6806 17.21 26.6249 18.375 26.6249C19.54 26.6249 20.4843 25.6806 20.4843 24.5156V20.2969C20.4843 19.1319 19.54 18.1875 18.375 18.1875Z" fill="#303030"/>
<path fill-rule="evenodd" clip-rule="evenodd" d="M20.4685 17.9834C19.8063 17.2723 18.9648 17.1123 18.4173 17.1655L18.3992 17.1672H18.3811C17.0269 17.1672 16.2073 17.9436 15.7351 19.0033C15.2549 20.0812 15.1607 21.4125 15.2825 22.3583C15.309 22.5637 15.1639 22.7516 14.9585 22.7781C14.7531 22.8045 14.5651 22.6595 14.5387 22.4541C14.4034 21.4037 14.502 19.9281 15.0501 18.6981C15.6043 17.4541 16.6432 16.4244 18.3632 16.4173C19.1007 16.351 20.1763 16.5691 21.0174 17.4723C21.8684 18.3862 22.4232 19.94 22.2254 22.4358C22.209 22.6422 22.0284 22.7963 21.8219 22.78C21.6155 22.7636 21.4614 22.583 21.4777 22.3765C21.6655 20.0068 21.1277 18.6913 20.4685 17.9834Z" fill="#303030"/>
<rect x="3.5" y="3.5" width="29" height="29" rx="14.5" stroke="#F26321"/>
</svg>
