<svg width="10" height="10" viewBox="0 0 10 10" fill="none" xmlns="http://www.w3.org/2000/svg">
<path d="M4.99957 0.277344C4.0656 0.277344 3.15261 0.554297 2.37604 1.07318C1.59948 1.59207 0.994217 2.32958 0.636804 3.19245C0.27939 4.05532 0.185874 5.0048 0.368082 5.92083C0.55029 6.83685 1.00004 7.67827 1.66045 8.33868C2.32087 8.99909 3.16229 9.44884 4.07831 9.63105C4.99433 9.81326 5.94381 9.71974 6.80668 9.36233C7.66956 9.00492 8.40707 8.39966 8.92595 7.62309C9.44484 6.84653 9.72179 5.93353 9.72179 4.99957C9.72179 3.74715 9.22427 2.54604 8.33868 1.66045C7.45309 0.774862 6.25198 0.277344 4.99957 0.277344ZM4.41323 2.63845C4.41323 2.4819 4.47541 2.33176 4.58611 2.22107C4.69681 2.11037 4.84695 2.04818 5.0035 2.04818C5.16005 2.04818 5.31019 2.11037 5.42089 2.22107C5.53159 2.33176 5.59378 2.4819 5.59378 2.63845V5.3498C5.59378 5.42731 5.57851 5.50407 5.54885 5.57569C5.51918 5.6473 5.4757 5.71237 5.42089 5.76719C5.36608 5.822 5.30101 5.86548 5.22939 5.89514C5.15778 5.92481 5.08102 5.94007 5.0035 5.94007C4.92599 5.94007 4.84923 5.92481 4.77761 5.89514C4.706 5.86548 4.64093 5.822 4.58611 5.76719C4.5313 5.71237 4.48782 5.6473 4.45816 5.57569C4.42849 5.50407 4.41323 5.42731 4.41323 5.3498V2.63845ZM4.99957 7.95095C4.8657 7.95095 4.73484 7.91126 4.62353 7.83688C4.51222 7.76251 4.42547 7.6568 4.37424 7.53312C4.32301 7.40944 4.30961 7.27335 4.33572 7.14206C4.36184 7.01076 4.4263 6.89016 4.52096 6.7955C4.61562 6.70084 4.73622 6.63637 4.86752 6.61026C4.99882 6.58414 5.13491 6.59754 5.25859 6.64877C5.38227 6.7 5.48798 6.78676 5.56235 6.89806C5.63672 7.00937 5.67642 7.14023 5.67642 7.2741C5.67642 7.45361 5.60511 7.62577 5.47817 7.75271C5.35124 7.87964 5.17908 7.95095 4.99957 7.95095Z" fill="#303030"/>
</svg>
