<svg width="40" height="41" viewBox="0 0 40 41" fill="none" xmlns="http://www.w3.org/2000/svg">
<path fill-rule="evenodd" clip-rule="evenodd" d="M7.58764 13.7055C7.69174 13.962 7.56817 14.2544 7.31163 14.3585C5.32132 15.1662 3.72994 16.1492 2.64377 17.2329C1.55969 18.3146 1.00258 19.4699 1.00258 20.6449C1.00258 22.8138 2.93046 24.9367 6.42221 26.5466C9.87119 28.1368 14.6712 29.1337 20 29.1337C25.3288 29.1337 30.1288 28.1368 33.5778 26.5466C37.0695 24.9367 38.9974 22.8138 38.9974 20.6449C38.9974 20.368 39.2219 20.1436 39.4987 20.1436C39.7756 20.1436 40 20.368 40 20.6449C40 23.4411 37.563 25.8132 33.9976 27.4571C30.3894 29.1206 25.44 30.1363 20 30.1363C14.56 30.1363 9.61058 29.1206 6.00243 27.4571C2.43704 25.8132 0 23.4411 0 20.6449C0 19.1286 0.723802 17.7323 1.93563 16.5232C3.14537 15.3162 4.86491 14.2694 6.93464 13.4295C7.19118 13.3254 7.48354 13.449 7.58764 13.7055Z" fill="url(#paint0_linear_1889_9211)"/>
<path fill-rule="evenodd" clip-rule="evenodd" d="M13.2826 7.08615C11.4921 10.5298 10.3698 15.3219 10.3698 20.6426C10.3698 25.9633 11.4922 30.7554 13.2827 34.199C15.0861 37.6673 17.4891 39.64 20.0066 39.64C21.4397 39.64 22.8283 39.0067 24.1005 37.814C24.3025 37.6246 24.6197 37.6348 24.8091 37.8368C24.9985 38.0388 24.9882 38.356 24.7863 38.5454C23.3783 39.8654 21.7557 40.6426 20.0066 40.6426C16.9253 40.6426 14.2592 38.2503 12.3932 34.6615C10.5144 31.048 9.36719 26.0908 9.36719 20.6426C9.36719 15.1944 10.5143 10.2372 12.3931 6.62365C14.259 3.03481 16.9251 0.642578 20.0066 0.642578C22.9983 0.642578 25.5986 2.89868 27.4516 6.30986C27.5837 6.55314 27.4937 6.85748 27.2504 6.98964C27.0071 7.12179 26.7028 7.0317 26.5706 6.78842C24.7857 3.50255 22.4504 1.64516 20.0066 1.64516C17.4889 1.64516 15.0859 3.61785 13.2826 7.08615Z" fill="url(#paint1_linear_1889_9211)"/>
<path fill-rule="evenodd" clip-rule="evenodd" d="M14.0625 14.3696C14.0625 14.0198 14.346 13.7363 14.6957 13.7363H18.7384C19.0881 13.7363 19.3716 14.0198 19.3716 14.3696V18.4122C19.3716 18.7619 19.0881 19.0454 18.7384 19.0454H14.6957C14.346 19.0454 14.0625 18.7619 14.0625 18.4122C14.0625 18.0625 14.346 17.779 14.6957 17.779H18.1051V15.0028H14.6957C14.346 15.0028 14.0625 14.7193 14.0625 14.3696Z" fill="url(#paint2_linear_1889_9211)"/>
<path fill-rule="evenodd" clip-rule="evenodd" d="M14.0625 18.4164C14.0625 18.0667 14.346 17.7832 14.6957 17.7832H18.7384C19.0881 17.7832 19.3716 18.0667 19.3716 18.4164V22.4591C19.3716 22.8088 19.0881 23.0923 18.7384 23.0923H14.6957C14.346 23.0923 14.0625 22.8088 14.0625 22.4591C14.0625 22.1093 14.346 21.8258 14.6957 21.8258H18.1051V19.0497H14.6957C14.346 19.0497 14.0625 18.7662 14.0625 18.4164Z" fill="url(#paint3_linear_1889_9211)"/>
<path fill-rule="evenodd" clip-rule="evenodd" d="M20.4883 14.3696C20.4883 14.0198 20.7718 13.7363 21.1215 13.7363H25.1641C25.5139 13.7363 25.7974 14.0198 25.7974 14.3696C25.7974 14.7193 25.5139 15.0028 25.1641 15.0028H21.7547V17.779H25.1646C25.5143 17.779 25.7978 18.0625 25.7978 18.4122C25.7978 18.7619 25.5143 19.0454 25.1646 19.0454H21.1215C20.7718 19.0454 20.4883 18.7619 20.4883 18.4122V14.3696Z" fill="url(#paint4_linear_1889_9211)"/>
<path fill-rule="evenodd" clip-rule="evenodd" d="M20.4883 18.4164C20.4883 18.0667 20.7718 17.7832 21.1215 17.7832H25.1641C25.5139 17.7832 25.7974 18.0667 25.7974 18.4164V22.4591C25.7974 22.8088 25.5139 23.0923 25.1641 23.0923H21.1215C20.7718 23.0923 20.4883 22.8088 20.4883 22.4591V18.4164ZM21.7547 19.0497V21.8258H24.5309V19.0497H21.7547Z" fill="url(#paint5_linear_1889_9211)"/>
<path fill-rule="evenodd" clip-rule="evenodd" d="M26.9219 14.3696C26.9219 14.0198 27.2054 13.7363 27.5551 13.7363H31.5977C31.9475 13.7363 32.231 14.0198 32.231 14.3696V22.4548C32.231 22.8045 31.9475 23.088 31.5977 23.088H27.5551C27.2054 23.088 26.9219 22.8045 26.9219 22.4548V14.3696ZM28.1883 15.0028V21.8216H30.9645V15.0028H28.1883Z" fill="url(#paint6_linear_1889_9211)"/>
<path fill-rule="evenodd" clip-rule="evenodd" d="M35.5345 15.0028C35.1491 15.0028 34.8368 15.3152 34.8368 15.7005C34.8368 16.0858 35.1491 16.3982 35.5345 16.3982C35.9198 16.3982 36.2322 16.0858 36.2322 15.7005C36.2322 15.3152 35.9198 15.0028 35.5345 15.0028ZM33.5703 15.7005C33.5703 14.6157 34.4497 13.7363 35.5345 13.7363C36.6193 13.7363 37.4986 14.6157 37.4986 15.7005C37.4986 16.7853 36.6193 17.6647 35.5345 17.6647C34.4497 17.6647 33.5703 16.7853 33.5703 15.7005Z" fill="url(#paint7_linear_1889_9211)"/>
<path fill-rule="evenodd" clip-rule="evenodd" d="M4.09821 12.8389C4.18905 12.5774 4.47471 12.439 4.73623 12.5298L7.28329 13.4146C7.40888 13.4583 7.512 13.55 7.56996 13.6696C7.62791 13.7893 7.63596 13.9271 7.59234 14.0527L6.70756 16.5997C6.61671 16.8612 6.33106 16.9996 6.06953 16.9088C5.808 16.8179 5.66964 16.5323 5.76049 16.2707L6.48077 14.1972L4.40725 13.4769C4.14572 13.3861 4.00736 13.1004 4.09821 12.8389Z" fill="url(#paint8_linear_1889_9211)"/>
<path fill-rule="evenodd" clip-rule="evenodd" d="M27.7361 3.43706C28.0057 3.49999 28.1732 3.76956 28.1103 4.03917L27.4976 6.66439C27.4674 6.79386 27.387 6.90602 27.2741 6.97621C27.1611 7.04639 27.025 7.06884 26.8955 7.03862L24.2703 6.42591C24.0007 6.36299 23.8331 6.09341 23.896 5.8238C23.959 5.55419 24.2285 5.38664 24.4982 5.44957L26.6352 5.94834L27.134 3.8113C27.1969 3.54169 27.4665 3.37413 27.7361 3.43706Z" fill="url(#paint9_linear_1889_9211)"/>
<defs>
<linearGradient id="paint0_linear_1889_9211" x1="0" y1="13.3926" x2="41.6264" y2="23.3094" gradientUnits="userSpaceOnUse">
<stop stop-color="#AC0000"/>
<stop offset="0.263542" stop-color="#FF0000"/>
<stop offset="0.508333" stop-color="#FF3B3B"/>
<stop offset="0.727083" stop-color="#FF0000"/>
<stop offset="1" stop-color="#FF0000"/>
</linearGradient>
<linearGradient id="paint1_linear_1889_9211" x1="9.36719" y1="0.642578" x2="29.2812" y2="1.54344" gradientUnits="userSpaceOnUse">
<stop stop-color="#AC0000"/>
<stop offset="0.263542" stop-color="#FF0000"/>
<stop offset="0.508333" stop-color="#FF3B3B"/>
<stop offset="0.727083" stop-color="#FF0000"/>
<stop offset="1" stop-color="#FF0000"/>
</linearGradient>
<linearGradient id="paint2_linear_1889_9211" x1="14.0625" y1="13.7363" x2="19.8435" y2="14.3128" gradientUnits="userSpaceOnUse">
<stop stop-color="#AC0000"/>
<stop offset="0.263542" stop-color="#FF0000"/>
<stop offset="0.508333" stop-color="#FF3B3B"/>
<stop offset="0.727083" stop-color="#FF0000"/>
<stop offset="1" stop-color="#FF0000"/>
</linearGradient>
<linearGradient id="paint3_linear_1889_9211" x1="14.0625" y1="17.7832" x2="19.8435" y2="18.3597" gradientUnits="userSpaceOnUse">
<stop stop-color="#AC0000"/>
<stop offset="0.263542" stop-color="#FF0000"/>
<stop offset="0.508333" stop-color="#FF3B3B"/>
<stop offset="0.727083" stop-color="#FF0000"/>
<stop offset="1" stop-color="#FF0000"/>
</linearGradient>
<linearGradient id="paint4_linear_1889_9211" x1="20.4883" y1="13.7363" x2="26.2698" y2="14.3129" gradientUnits="userSpaceOnUse">
<stop stop-color="#AC0000"/>
<stop offset="0.263542" stop-color="#FF0000"/>
<stop offset="0.508333" stop-color="#FF3B3B"/>
<stop offset="0.727083" stop-color="#FF0000"/>
<stop offset="1" stop-color="#FF0000"/>
</linearGradient>
<linearGradient id="paint5_linear_1889_9211" x1="20.4883" y1="17.7832" x2="26.2693" y2="18.3597" gradientUnits="userSpaceOnUse">
<stop stop-color="#AC0000"/>
<stop offset="0.263542" stop-color="#FF0000"/>
<stop offset="0.508333" stop-color="#FF3B3B"/>
<stop offset="0.727083" stop-color="#FF0000"/>
<stop offset="1" stop-color="#FF0000"/>
</linearGradient>
<linearGradient id="paint6_linear_1889_9211" x1="26.9219" y1="13.7363" x2="32.7417" y2="14.0658" gradientUnits="userSpaceOnUse">
<stop stop-color="#AC0000"/>
<stop offset="0.263542" stop-color="#FF0000"/>
<stop offset="0.508333" stop-color="#FF3B3B"/>
<stop offset="0.727083" stop-color="#FF0000"/>
<stop offset="1" stop-color="#FF0000"/>
</linearGradient>
<linearGradient id="paint7_linear_1889_9211" x1="33.5703" y1="13.7363" x2="37.8478" y2="14.1629" gradientUnits="userSpaceOnUse">
<stop stop-color="#AC0000"/>
<stop offset="0.263542" stop-color="#FF0000"/>
<stop offset="0.508333" stop-color="#FF3B3B"/>
<stop offset="0.727083" stop-color="#FF0000"/>
<stop offset="1" stop-color="#FF0000"/>
</linearGradient>
<linearGradient id="paint8_linear_1889_9211" x1="4.07031" y1="12.502" x2="7.94937" y2="12.8116" gradientUnits="userSpaceOnUse">
<stop stop-color="#AC0000"/>
<stop offset="0.263542" stop-color="#FF0000"/>
<stop offset="0.508333" stop-color="#FF3B3B"/>
<stop offset="0.727083" stop-color="#FF0000"/>
<stop offset="1" stop-color="#FF0000"/>
</linearGradient>
<linearGradient id="paint9_linear_1889_9211" x1="23.8828" y1="3.42383" x2="28.4839" y2="3.96017" gradientUnits="userSpaceOnUse">
<stop stop-color="#AC0000"/>
<stop offset="0.263542" stop-color="#FF0000"/>
<stop offset="0.508333" stop-color="#FF3B3B"/>
<stop offset="0.727083" stop-color="#FF0000"/>
<stop offset="1" stop-color="#FF0000"/>
</linearGradient>
</defs>
</svg>
