<svg width="15" height="9" viewBox="0 0 15 9" fill="none" xmlns="http://www.w3.org/2000/svg">
<path d="M14.0198 0.461086C13.8879 0.464409 13.7626 0.52327 13.6712 0.624818L7.53017 7.17478L1.38914 0.624818C1.34258 0.573672 1.28686 0.533012 1.2253 0.505245C1.16374 0.477479 1.09758 0.46317 1.03073 0.463168C0.931316 0.463193 0.834165 0.494855 0.751712 0.554103C0.669259 0.61335 0.605253 0.697488 0.567885 0.795752C0.530516 0.894015 0.521484 1.00194 0.541944 1.10571C0.562404 1.20947 0.611426 1.30437 0.682736 1.37826L7.17697 8.30494C7.27065 8.40483 7.3977 8.46094 7.53017 8.46094C7.66264 8.46094 7.78968 8.40483 7.88337 8.30494L14.3776 1.37826C14.4502 1.30389 14.5001 1.20785 14.5207 1.10272C14.5413 0.997591 14.5316 0.888282 14.4929 0.789125C14.4542 0.689968 14.3884 0.605589 14.304 0.547052C14.2195 0.488514 14.1205 0.45855 14.0198 0.461086Z" fill="#565656"/>
</svg>
