<svg width="22" height="36" viewBox="0 0 22 36" fill="none" xmlns="http://www.w3.org/2000/svg">
<path fill-rule="evenodd" clip-rule="evenodd" d="M3.13158 0.630466C2.82928 0.746544 2.60008 0.929944 1.95451 1.57243C0.96441 2.55771 0.82956 2.79303 0.827015 3.53928C0.82564 3.94026 0.860573 4.16402 0.955746 4.36448C1.04425 4.55104 3.24635 6.803 7.79765 11.3617L14.509 18.0837L7.79022 24.8055C2.56378 30.034 1.04053 31.5959 0.932571 31.8366C0.839805 32.0435 0.793526 32.2943 0.792976 32.593C0.7916 33.2982 0.992673 33.6465 1.94722 34.5934C2.61865 35.2595 2.81594 35.4148 3.14863 35.5389C3.65015 35.7262 4.04707 35.7271 4.55312 35.542C4.93429 35.4026 5.29228 35.0556 13.0109 27.3416C21.9274 18.4304 21.4193 18.9899 21.4193 18.0833C21.4193 17.1768 21.9274 17.7363 13.0109 8.82479C5.28843 1.10667 4.93449 0.763529 4.55312 0.624415C4.0558 0.442941 3.61521 0.444798 3.13158 0.630466Z" fill="white"/>
</svg>
