<svg width="18" height="18" viewBox="0 0 18 18" fill="none" xmlns="http://www.w3.org/2000/svg">
<path fill-rule="evenodd" clip-rule="evenodd" d="M9.55753 1.16456C9.55753 1.09171 9.54318 1.01958 9.5153 0.952271C9.48742 0.884966 9.44656 0.823811 9.39505 0.772298C9.34354 0.720784 9.28238 0.679922 9.21507 0.652043C9.14777 0.624164 9.07563 0.609815 9.00278 0.609815C8.92993 0.609815 8.85779 0.624164 8.79049 0.652043C8.72318 0.679922 8.66203 0.720784 8.61052 0.772297C8.559 0.823811 8.51814 0.884966 8.49026 0.952271C8.46238 1.01958 8.44803 1.09171 8.44803 1.16456L8.44882 8.44603L1.16735 8.44525C1.0945 8.44525 1.02236 8.4596 0.955053 8.48748C0.887747 8.51536 0.826592 8.55622 0.775079 8.60773C0.723566 8.65925 0.682704 8.7204 0.654825 8.78771C0.626946 8.85501 0.612597 8.92715 0.612597 9C0.612597 9.07285 0.626946 9.14499 0.654825 9.21229C0.682704 9.2796 0.723566 9.34075 0.775079 9.39227C0.826592 9.44378 0.887747 9.48464 0.955053 9.51252C1.02236 9.5404 1.0945 9.55475 1.16735 9.55475L8.44882 9.55397L8.44803 16.8354C8.44803 16.9826 8.50648 17.1237 8.61052 17.2277C8.71455 17.3317 8.85565 17.3902 9.00278 17.3902C9.14991 17.3902 9.29101 17.3317 9.39505 17.2277C9.49908 17.1237 9.55753 16.9826 9.55753 16.8354L9.55675 9.55397L16.8382 9.55475C16.9853 9.55475 17.1264 9.4963 17.2305 9.39227C17.3345 9.28823 17.393 9.14713 17.393 9C17.393 8.85287 17.3345 8.71177 17.2305 8.60773C17.1264 8.5037 16.9853 8.44525 16.8382 8.44525L9.55675 8.44603L9.55753 1.16456Z" fill="white"/>
</svg>
