<svg xmlns="http://www.w3.org/2000/svg" width="257" height="164" viewBox="0 0 257 164" fill="none">
<path d="M9.14923 163.461L247.851 163.461C252.904 163.461 257 159.365 257 154.312L257 114.499C257 112.071 256.035 109.742 254.317 108.026L245.819 99.5366C244.101 97.8205 243.136 95.492 243.136 93.064L243.136 8.00003C243.136 3.58175 239.555 2.1324e-05 235.136 2.09307e-05L9.14923 -3.99925e-07C4.09625 -1.79053e-07 2.95646e-06 4.09625 6.60344e-06 9.14923L4.7669e-05 66.0465L2.25527e-05 154.312C2.11149e-05 159.365 4.09626 163.461 9.14923 163.461Z" fill="white"/>
</svg>