<svg xmlns="http://www.w3.org/2000/svg" width="257" height="380" viewBox="0 0 257 380" fill="none">
  <path d="M247.851 379.5L9.14926 379.5C4.09628 379.5 4.46257e-05 375.404 4.48466e-05 370.351L2.12034e-05 213.084C2.13095e-05 210.656 0.96517 208.328 2.68288 206.612L11.1809 198.122C12.8986 196.406 13.8637 194.077 13.8637 191.649L13.8637 8.00001C13.8637 3.58174 17.4455 2.1324e-05 21.8637 2.09307e-05L247.851 -3.99925e-07C252.904 -1.79053e-07 257 4.09625 257 9.14922L257 164.632L257 370.351C257 375.404 252.904 379.5 247.851 379.5Z" fill="white"/>
</svg>