<svg width="9" height="9" viewBox="0 0 9 9" fill="none" xmlns="http://www.w3.org/2000/svg">
<g id="CheckMark">
<path id="Mark" d="M4.69522 0.922859C4.58618 0.81738 4.41315 0.81738 4.30411 0.922859L3.56858 1.63441L2.55528 1.49109C2.40507 1.46984 2.26508 1.57155 2.23887 1.72097L2.06205 2.72897L1.15803 3.20862C1.02402 3.27972 0.970549 3.44429 1.03717 3.58058L1.48661 4.5L1.03717 5.41942C0.970549 5.55571 1.02402 5.72028 1.15803 5.79138L2.06205 6.27103L2.23887 7.27903C2.26508 7.42845 2.40507 7.53016 2.55528 7.50891L3.56858 7.36559L4.30411 8.07714C4.41315 8.18262 4.58618 8.18262 4.69522 8.07714L5.43075 7.36559L6.44405 7.50891C6.59426 7.53016 6.73425 7.42845 6.76046 7.27903L6.93728 6.27103L7.8413 5.79138C7.97531 5.72028 8.02878 5.55571 7.96216 5.41942L7.51272 4.5L7.96216 3.58058C8.02878 3.44429 7.97531 3.27972 7.8413 3.20862L6.93728 2.72897L6.76046 1.72097C6.73425 1.57155 6.59426 1.46984 6.44405 1.49109L5.43075 1.63441L4.69522 0.922859Z" fill="#4987F7"/>
<path id="Check" fill-rule="evenodd" clip-rule="evenodd" d="M5.8007 3.53039C5.92199 3.62742 5.94165 3.80441 5.84462 3.92571L4.34462 5.80071C4.29464 5.86318 4.22043 5.90141 4.14055 5.90583C4.06068 5.91025 3.98269 5.88045 3.92613 5.82388L3.17613 5.07388C3.06629 4.96405 3.06629 4.78597 3.17613 4.67614C3.28596 4.5663 3.46404 4.5663 3.57387 4.67614L4.10168 5.20394L5.40538 3.57431C5.50241 3.45302 5.6794 3.43336 5.8007 3.53039Z" fill="white"/>
</g>
</svg>
