<svg xmlns="http://www.w3.org/2000/svg" width="1048" height="493" viewBox="0 0 1048 493" fill="none">
  <path d="M1 476V17C1 8.16344 8.16346 1 17 1H521.467C525.713 1 529.784 2.68712 532.785 5.68993L557.313 30.234C560.314 33.2368 564.385 34.924 568.63 34.924H644.5H1030.57C1039.41 34.924 1046.57 42.0892 1046.57 50.9268L1046.5 444.588C1046.5 453.424 1039.34 460.585 1030.5 460.585H822.109H646.129C641.885 460.585 637.814 462.272 634.813 465.274L612.785 487.311C609.784 490.313 605.713 492 601.469 492H17C8.16344 492 1 484.837 1 476Z" fill="url(#paint0_linear_1_1987)"/>
  <path d="M1 476V17C1 8.16344 8.16346 1 17 1H521.467C525.713 1 529.784 2.68712 532.785 5.68993L557.313 30.234C560.314 33.2368 564.385 34.924 568.63 34.924H644.5H1030.57C1039.41 34.924 1046.57 42.0892 1046.57 50.9268L1046.5 444.588C1046.5 453.424 1039.34 460.585 1030.5 460.585H822.109H646.129C641.885 460.585 637.814 462.272 634.813 465.274L612.785 487.311C609.784 490.313 605.713 492 601.469 492H17C8.16344 492 1 484.837 1 476Z" stroke="url(#paint1_linear_1_1987)" stroke-opacity="0.3" stroke-width="2"/>
  <path d="M1 476V17C1 8.16344 8.16346 1 17 1H521.467C525.713 1 529.784 2.68712 532.785 5.68993L557.313 30.234C560.314 33.2368 564.385 34.924 568.63 34.924H644.5H1030.57C1039.41 34.924 1046.57 42.0892 1046.57 50.9268L1046.5 444.588C1046.5 453.424 1039.34 460.585 1030.5 460.585H822.109H646.129C641.885 460.585 637.814 462.272 634.813 465.274L612.785 487.311C609.784 490.313 605.713 492 601.469 492H17C8.16344 492 1 484.837 1 476Z" stroke="url(#paint2_linear_1_1987)" stroke-opacity="0.3" stroke-width="2"/>
  <defs>
    <linearGradient id="paint0_linear_1_1987" x1="556" y1="492" x2="556" y2="-195.5" gradientUnits="userSpaceOnUse">
      <stop stop-color="#1F1E1E"/>
      <stop offset="1" stop-color="#1F1F1F"/>
    </linearGradient>
    <linearGradient id="paint1_linear_1_1987" x1="566" y1="88.5" x2="24.0001" y2="688.5" gradientUnits="userSpaceOnUse">
      <stop stop-opacity="0"/>
      <stop offset="1" stop-color="white"/>
    </linearGradient>
    <linearGradient id="paint2_linear_1_1987" x1="473.5" y1="275" x2="1064.5" y2="0.999966" gradientUnits="userSpaceOnUse">
      <stop stop-opacity="0"/>
      <stop offset="1" stop-color="white"/>
    </linearGradient>
  </defs>
</svg>