<svg width="14" height="8" viewBox="0 0 14 8" fill="none" xmlns="http://www.w3.org/2000/svg">
<path fill-rule="evenodd" clip-rule="evenodd" d="M0.435763 1.12063C0.47944 1.0115 0.548449 0.928758 0.790202 0.695697C1.16094 0.33826 1.24949 0.289577 1.53029 0.288659C1.68117 0.288162 1.76537 0.300773 1.84079 0.335132C1.91099 0.367082 2.75836 1.16207 4.47368 2.80514L7.00304 5.22804L9.5323 2.80246C11.4997 0.915652 12.0874 0.365743 12.178 0.326767C12.2558 0.293277 12.3502 0.27657 12.4626 0.276371C12.7279 0.275875 12.859 0.348465 13.2153 0.693067C13.4659 0.935463 13.5244 1.00669 13.5711 1.12679C13.6415 1.30785 13.6419 1.45114 13.5722 1.63383C13.5198 1.77144 13.3892 1.90068 10.4866 4.68719C7.13351 7.90616 7.34403 7.72272 7.00291 7.72272C6.6618 7.72272 6.87232 7.90616 3.51911 4.68719C0.614949 1.89929 0.485831 1.77151 0.433485 1.63383C0.365201 1.45429 0.365899 1.29523 0.435763 1.12063Z" fill="#303030"/>
</svg>
