<svg width="18" height="18" viewBox="0 0 18 18" fill="none" xmlns="http://www.w3.org/2000/svg">
<path d="M16.6374 11.1562C16.2402 11.1562 15.9182 11.4782 15.9182 11.8756V15.472C15.9182 15.6627 15.8424 15.8458 15.7075 15.9806C15.5726 16.1155 15.3896 16.1914 15.1989 16.1914H2.25162C1.85449 16.1914 1.53225 15.8691 1.53225 15.472V11.8756C1.53225 11.4782 1.21025 11.1562 0.813123 11.1562C0.415748 11.1562 0.09375 11.4782 0.09375 11.8756V15.472C0.09375 16.0442 0.321097 16.5931 0.725698 16.9979C1.13054 17.4025 1.67942 17.6299 2.25162 17.6299H15.1989C15.7711 17.6299 16.32 17.4025 16.7248 16.9979C17.1294 16.5931 17.3567 16.0442 17.3567 15.472V11.8756C17.3567 11.6849 17.2809 11.5018 17.146 11.367C17.0111 11.2321 16.8281 11.1562 16.6374 11.1562Z" fill="#303030"/>
<path d="M6.97828 10.9048L8.33059 12.3433C8.44234 12.4629 8.59864 12.5311 8.76217 12.5311C8.92593 12.5311 9.08224 12.4629 9.19374 12.3433L10.546 10.9048L11.3948 9.99851L11.395 9.99827C11.5542 9.8239 11.5959 9.57199 11.501 9.35571C11.4061 9.13921 11.1925 8.99928 10.9562 8.99856H9.44571V1.08656C9.44571 0.895817 9.36984 0.712786 9.23498 0.577919C9.10011 0.443052 8.91708 0.367188 8.72633 0.367188C8.3292 0.367188 8.00696 0.689185 8.00696 1.08656V8.99856H6.56846C6.33341 9.00217 6.12244 9.14306 6.02923 9.35884C5.93627 9.57463 5.97842 9.82486 6.13689 9.99825L6.97828 10.9048Z" fill="#303030"/>
</svg>
