<svg width="10" height="10" viewBox="0 0 10 10" fill="none" xmlns="http://www.w3.org/2000/svg">
<path d="M5.61356 0.979635C5.5517 0.871863 5.46249 0.782323 5.35494 0.720056C5.2474 0.657789 5.12533 0.625 5.00106 0.625C4.8768 0.625 4.75473 0.657789 4.64718 0.720056C4.53964 0.782323 4.45043 0.871863 4.38856 0.979635L0.102939 8.27151C-0.182686 8.75776 0.159814 9.37589 0.715439 9.37589H9.28606C9.84169 9.37589 10.1848 8.75714 9.89856 8.27151L5.61356 0.979635ZM4.99981 3.12589C5.33419 3.12589 5.59606 3.41464 5.56231 3.74776L5.34356 5.93964C5.33621 6.02574 5.29681 6.10596 5.23316 6.16441C5.16951 6.22286 5.08623 6.25529 4.99981 6.25529C4.91339 6.25529 4.83012 6.22286 4.76647 6.16441C4.70281 6.10596 4.66341 6.02574 4.65606 5.93964L4.43731 3.74776C4.42946 3.66916 4.43815 3.58978 4.46284 3.51474C4.48753 3.4397 4.52766 3.37067 4.58065 3.31208C4.63365 3.2535 4.69832 3.20666 4.77051 3.17459C4.84271 3.14252 4.92082 3.12593 4.99981 3.12589ZM5.00106 6.87589C5.16682 6.87589 5.32579 6.94173 5.44301 7.05894C5.56021 7.17615 5.62606 7.33513 5.62606 7.50089C5.62606 7.66665 5.56021 7.82562 5.44301 7.94283C5.32579 8.06004 5.16682 8.12589 5.00106 8.12589C4.8353 8.12589 4.67633 8.06004 4.55912 7.94283C4.44191 7.82562 4.37606 7.66665 4.37606 7.50089C4.37606 7.33513 4.44191 7.17615 4.55912 7.05894C4.67633 6.94173 4.8353 6.87589 5.00106 6.87589Z" fill="#EE2326"/>
</svg>
