<svg width="16" height="15" viewBox="0 0 16 15" fill="none" xmlns="http://www.w3.org/2000/svg">
<path d="M13.625 1.5H11.375V0.375C11.375 0.275544 11.3355 0.180161 11.2652 0.109835C11.1948 0.0395089 11.0995 0 11 0C10.9005 0 10.8052 0.0395089 10.7348 0.109835C10.6645 0.180161 10.625 0.275544 10.625 0.375V1.5H5.375V0.375C5.375 0.275544 5.33549 0.180161 5.26517 0.109835C5.19484 0.0395089 5.09946 0 5 0C4.90054 0 4.80516 0.0395089 4.73484 0.109835C4.66451 0.180161 4.625 0.275544 4.625 0.375V1.5H2.375C1.8779 1.5006 1.40133 1.69833 1.04983 2.04983C0.698331 2.40133 0.500595 2.8779 0.5 3.375V13.125C0.500595 13.6221 0.698331 14.0987 1.04983 14.4502C1.40133 14.8017 1.8779 14.9994 2.375 15H13.625C14.1222 14.9996 14.5988 14.8019 14.9504 14.4504C15.3019 14.0988 15.4996 13.6222 15.5 13.125V3.375C15.4996 2.87784 15.3019 2.40116 14.9504 2.04961C14.5988 1.69807 14.1222 1.5004 13.625 1.5ZM14.75 13.125C14.75 13.4234 14.6315 13.7095 14.4205 13.9205C14.2095 14.1315 13.9234 14.25 13.625 14.25H2.375C2.07663 14.25 1.79048 14.1315 1.5795 13.9205C1.36853 13.7095 1.25 13.4234 1.25 13.125V6.75H14.75V13.125ZM14.75 6H1.25V3.375C1.25 2.754 1.7525 2.25 2.375 2.25H4.625V3.375C4.625 3.47446 4.66451 3.56984 4.73484 3.64016C4.80516 3.71049 4.90054 3.75 5 3.75C5.09946 3.75 5.19484 3.71049 5.26517 3.64016C5.33549 3.56984 5.375 3.47446 5.375 3.375V2.25H10.625V3.375C10.625 3.47446 10.6645 3.56984 10.7348 3.64016C10.8052 3.71049 10.9005 3.75 11 3.75C11.0995 3.75 11.1948 3.71049 11.2652 3.64016C11.3355 3.56984 11.375 3.47446 11.375 3.375V2.25H13.625C13.9234 2.25 14.2095 2.36853 14.4205 2.5795C14.6315 2.79048 14.75 3.07663 14.75 3.375V6Z" fill="#303030"/>
</svg>
