<?xml version="1.0" encoding="utf-8"?>
<!-- Generator: Adobe Illustrator 27.5.0, SVG Export Plug-In . SVG Version: 6.00 Build 0)  -->
<svg version="1.1" id="Layer_1" xmlns="http://www.w3.org/2000/svg" xmlns:xlink="http://www.w3.org/1999/xlink" x="0px" y="0px"
	 viewBox="0 0 800 800" style="enable-background:new 0 0 800 800;" xml:space="preserve">
<style type="text/css">
	.st0{fill:#FFFFFF;}
</style>
<path class="st0" d="M733.3,400c0,184.1-149.2,333.3-333.3,333.3S66.7,584.1,66.7,400S215.9,66.7,400,66.7S733.3,215.9,733.3,400
	L733.3,400z"/>
<path d="M372.2,254.7c0-18.3-10.6-22.7-23.6-9.8l-89.3,89.3h-61.3c-18.4,0.1-33.3,15-33.3,33.4v71c0,18.4,14.9,33.3,33.3,33.3h61.3
	l89.3,89.3c13,13,23.6,8.6,23.6-9.8L372.2,254.7z"/>
<path d="M533.9,403.1l62.7-62.7c6.4-6.6,6.3-17.1-0.2-23.6c-6.5-6.4-16.9-6.4-23.3,0l-62.7,62.7l-62.7-62.7
	c-6.6-6.4-17.1-6.3-23.6,0.2c-6.4,6.5-6.4,16.9,0,23.3l62.7,62.7L424,465.9c-6.6,6.4-6.7,17-0.2,23.6s17,6.7,23.6,0.2
	c0.1-0.1,0.2-0.2,0.2-0.2l62.7-62.7l62.7,62.7c6.6,6.4,17.1,6.3,23.6-0.2c6.4-6.5,6.4-16.9,0-23.3L533.9,403.1z"/>
</svg>
