<?xml version="1.0" encoding="utf-8"?>
<!-- Generator: Adobe Illustrator 27.5.0, SVG Export Plug-In . SVG Version: 6.00 Build 0)  -->
<svg version="1.1" id="Layer_1" xmlns="http://www.w3.org/2000/svg" xmlns:xlink="http://www.w3.org/1999/xlink" x="0px" y="0px"
	 viewBox="0 0 800 800" style="enable-background:new 0 0 800 800;" xml:space="preserve">
<style type="text/css">
	.st0{fill:#FFFFFF;}
</style>
<path class="st0" d="M733.3,403.5c0,184.1-149.2,333.3-333.3,333.3S66.7,587.6,66.7,403.5S215.9,70.1,400,70.1
	S733.3,219.4,733.3,403.5L733.3,403.5z"/>
<path d="M372.2,254.7c0-18.3-10.6-22.7-23.6-9.8l-89.3,89.3H198c-18.4,0.1-33.3,15-33.3,33.4v71c0,18.4,14.9,33.3,33.3,33.3h61.3
	l89.3,89.3c13,13,23.6,8.6,23.6-9.8L372.2,254.7z"/>
<g>
	<path d="M491.6,400c0-31.6-19.3-58.7-46.8-70.1L430.2,365c13.7,5.7,23.3,19.2,23.3,35.1c0,15.8-9.6,29.3-23.3,35.1l14.6,35.1
		C472.3,458.7,491.6,431.6,491.6,400z"/>
	<path d="M500.1,259.7l-14.6,35.1c41.3,17.2,70.2,57.8,70.2,105.2c0,47.5-29,88-70.2,105.2l14.6,35.1c55-22.9,93.6-77.1,93.6-140.3
		C593.6,336.7,555.1,282.6,500.1,259.7z"/>
</g>
</svg>
