<?xml version="1.0" encoding="utf-8"?>
<!-- Generator: Adobe Illustrator 27.5.0, SVG Export Plug-In . SVG Version: 6.00 Build 0)  -->
<svg version="1.1" id="Layer_1" xmlns="http://www.w3.org/2000/svg" xmlns:xlink="http://www.w3.org/1999/xlink" x="0px" y="0px"
	 viewBox="0 0 800 800" style="enable-background:new 0 0 800 800;" xml:space="preserve">
<style type="text/css">
	.st0{fill:#FFFFFF;}
</style>
<path class="st0" d="M733.3,403.5c0,184.1-149.2,333.3-333.3,333.3S66.7,587.6,66.7,403.5S215.9,70.1,400,70.1
	S733.3,219.4,733.3,403.5L733.3,403.5z"/>
<path d="M259.9,517.1c0,10.5,4.5,18.9,13.5,25c4.9,2.8,10.2,4.2,15.8,4.2c4.3,0,8.7-1.1,13-3.2l234.3-116.9c4.6-2.5,8.5-6,11.6-10.7
	c3.1-4.6,4.5-9.9,4.2-15.8c-0.3-5.9-1.7-11-4.2-15.3c-2.5-4.3-6.3-7.9-11.6-10.7L302.1,256.9c-4.3-2.2-8.7-3.2-13-3.2
	c-5.3,0-10.5,1.4-15.8,4.2c-9,5.9-13.5,14.2-13.5,25L259.9,517.1L259.9,517.1z"/>
</svg>
