<?xml version="1.0" encoding="utf-8"?>
<!-- Generator: Adobe Illustrator 27.5.0, SVG Export Plug-In . SVG Version: 6.00 Build 0)  -->
<svg version="1.1" id="Layer_1" xmlns="http://www.w3.org/2000/svg" xmlns:xlink="http://www.w3.org/1999/xlink" x="0px" y="0px"
	 viewBox="0 0 800 800" style="enable-background:new 0 0 800 800;" xml:space="preserve">
<style type="text/css">
	.st0{fill:#FFFFFF;}
	.st1{fill-rule:evenodd;clip-rule:evenodd;}
</style>
<path class="st0" d="M733.3,403.5c0,184.1-149.2,333.3-333.3,333.3S66.7,587.6,66.7,403.5S215.9,70.1,400,70.1
	S733.3,219.4,733.3,403.5L733.3,403.5z"/>
<g>
	<path class="st1" d="M478.6,242.7c21.7,0,39.3,17.6,39.3,39.3v236c0,21.7-17.6,39.3-39.3,39.3c-21.7,0-39.3-17.6-39.3-39.3V282
		C439.3,260.3,456.9,242.7,478.6,242.7z"/>
	<path class="st1" d="M321.4,242.7c21.7,0,39.3,17.6,39.3,39.3v236c0,21.7-17.6,39.3-39.3,39.3c-21.7,0-39.3-17.6-39.3-39.3V282
		C282,260.3,299.6,242.7,321.4,242.7z"/>
</g>
</svg>
