<svg width="13" height="16" viewBox="0 0 13 16" fill="none" xmlns="http://www.w3.org/2000/svg">
<path fill-rule="evenodd" clip-rule="evenodd" d="M1.28416 14.8585C1.20536 14.8585 1.14148 14.7946 1.14148 14.7158C1.14148 14.637 1.20536 14.5732 1.28416 14.5732C1.36297 14.5732 1.42685 14.637 1.42685 14.7158C1.42685 14.7946 1.36297 14.8585 1.28416 14.8585ZM-5.61326e-08 14.7158C-2.51314e-08 15.4251 0.57494 16 1.28416 16C1.99339 16 2.56833 15.4251 2.56833 14.7158C2.56833 14.0066 1.99339 13.4317 1.28416 13.4317C0.57494 13.4317 -8.71338e-08 14.0066 -5.61326e-08 14.7158ZM6.27814 14.8585C6.19933 14.8585 6.13545 14.7946 6.13545 14.7158C6.13545 14.637 6.19933 14.5732 6.27814 14.5732C6.35694 14.5732 6.42082 14.637 6.42082 14.7158C6.42082 14.7946 6.35694 14.8585 6.27814 14.8585ZM4.99397 14.7158C4.99397 15.4251 5.56891 16 6.27814 16C6.98736 16 7.5623 15.4251 7.5623 14.7158C7.5623 14.0066 6.98736 13.4317 6.27814 13.4317C5.56891 13.4317 4.99397 14.0066 4.99397 14.7158ZM11.2721 14.8585C11.1933 14.8585 11.1294 14.7946 11.1294 14.7158C11.1294 14.637 11.1933 14.5732 11.2721 14.5732C11.3509 14.5732 11.4148 14.637 11.4148 14.7158C11.4148 14.7946 11.3509 14.8585 11.2721 14.8585ZM9.98795 14.7158C9.98795 15.4251 10.5629 16 11.2721 16C11.9813 16 12.5563 15.4251 12.5563 14.7158C12.5563 14.0066 11.9813 13.4317 11.2721 13.4317C10.5629 13.4317 9.98795 14.0066 9.98795 14.7158ZM0.642883 11.0405C0.642883 11.4041 0.937642 11.6989 1.30125 11.6989C1.66485 11.6989 1.95961 11.4041 1.95961 11.0405L1.95961 0.870527C1.95961 0.506924 1.66485 0.212164 1.30125 0.212164C0.937642 0.212164 0.642883 0.506924 0.642883 0.870527L0.642883 11.0405ZM5.76348 11.0405C5.76348 11.4041 6.05824 11.6989 6.42185 11.6989C6.78545 11.6989 7.08021 11.4041 7.08021 11.0405L7.08021 0.870527C7.08021 0.506923 6.78545 0.212164 6.42185 0.212164C6.05824 0.212164 5.76348 0.506923 5.76348 0.870527L5.76348 11.0405ZM10.8841 11.0405C10.8841 11.4041 11.1788 11.6989 11.5424 11.6989C11.9061 11.6989 12.2008 11.4041 12.2008 11.0405L12.2008 0.870527C12.2008 0.506923 11.9061 0.212163 11.5424 0.212163C11.1788 0.212163 10.8841 0.506923 10.8841 0.870527L10.8841 11.0405Z" fill="white"/>
</svg>
