<svg width="22" height="18" viewBox="0 0 22 18" fill="none" xmlns="http://www.w3.org/2000/svg">
<path d="M15 5.50001C16.333 7.27801 16.333 10.722 15 12.5M18 2.00001C21.988 5.80801 22.012 12.217 18 16M1 11.959V6.04001C1 5.46601 1.448 5.00001 2 5.00001H5.586C5.71833 4.99954 5.8492 4.97228 5.97071 4.91986C6.09222 4.86744 6.20185 4.79095 6.293 4.69501L9.293 1.30701C9.923 0.651013 11 1.11601 11 2.04301V15.957C11 16.891 9.91 17.352 9.284 16.683L6.294 13.314C6.20259 13.2153 6.09185 13.1365 5.96867 13.0825C5.84549 13.0285 5.71251 13.0004 5.578 13H2C1.448 13 1 12.534 1 11.959Z" stroke="#303030" stroke-width="1.6" stroke-linecap="round" stroke-linejoin="round"/>
</svg>
