<svg width="16" height="11" viewBox="0 0 16 11" fill="none" xmlns="http://www.w3.org/2000/svg">
<path d="M13.6554 1.18323L13.9306 1H13.6H2.4H2.0694L2.34457 1.18323L7.94457 4.91223L8 4.94914L8.05543 4.91223L13.6554 1.18323ZM15.5959 0.394231L15.6653 0.322183L15.5959 0.394231C15.7911 0.582088 15.9 0.836043 15.9 1.1V9.9C15.9 10.164 15.7911 10.4179 15.5959 10.6058C15.4006 10.7938 15.1349 10.9 14.8571 10.9H1.14286C0.865067 10.9 0.599388 10.7938 0.404082 10.6058C0.208906 10.4179 0.1 10.164 0.1 9.9V1.1C0.1 0.836044 0.208906 0.582088 0.404082 0.394231C0.599388 0.206249 0.865067 0.1 1.14286 0.1H14.8571C15.1349 0.1 15.4006 0.206249 15.5959 0.394231ZM1.04286 9.9V10H1.14286H14.8571H14.9571V9.9V1.6005V1.41374L14.8017 1.51727L8.27028 5.86777L8.27018 5.86784C8.19118 5.92059 8.09691 5.9491 8 5.9491C7.90309 5.9491 7.80882 5.92059 7.72982 5.86784L7.72972 5.86777L1.19829 1.51727L1.04286 1.41374V1.6005V9.9Z" fill="#303030" stroke="white" stroke-width="0.2"/>
</svg>
