<svg width="32" height="18" viewBox="0 0 32 18" fill="none" xmlns="http://www.w3.org/2000/svg">
<path fill-rule="evenodd" clip-rule="evenodd" d="M31.872 2.04031C31.7665 1.77658 31.5997 1.57661 31.0155 1.01338C30.1195 0.149574 29.9055 0.0319238 29.2269 0.0297041C28.8623 0.0285043 28.6588 0.0589818 28.4766 0.142015C28.3069 0.219228 26.2591 2.14045 22.1137 6.11121L16.0011 11.9665L9.88874 6.10473C5.13418 1.54494 3.71389 0.215991 3.49503 0.121799C3.30693 0.0408664 3.07881 0.000489902 2.80717 9.97843e-06C2.16597 -0.00118983 1.84919 0.174236 0.988182 1.00702C0.382435 1.59282 0.241238 1.76494 0.128369 2.0552C-0.0419079 2.49274 -0.0427204 2.83903 0.125554 3.28053C0.252306 3.61308 0.567904 3.92542 7.58249 10.6595C15.6858 18.4387 15.1771 17.9954 16.0014 17.9954C16.8258 17.9954 16.317 18.4387 24.4206 10.6595C31.439 3.92205 31.751 3.61326 31.8775 3.28053C32.0426 2.84665 32.0409 2.46226 31.872 2.04031Z" fill="#303030"/>
</svg>
