<svg width="22" height="36" viewBox="0 0 22 36" fill="none" xmlns="http://www.w3.org/2000/svg">
<path fill-rule="evenodd" clip-rule="evenodd" d="M19.1184 0.630466C19.4207 0.746544 19.6499 0.929944 20.2955 1.57243C21.2856 2.55771 21.4204 2.79303 21.423 3.53928C21.4244 3.94026 21.3894 4.16402 21.2943 4.36448C21.2058 4.55104 19.0036 6.803 14.4524 11.3617L7.74097 18.0837L14.4598 24.8055C19.6862 30.034 21.2095 31.5959 21.3174 31.8366C21.4102 32.0435 21.4565 32.2943 21.457 32.593C21.4584 33.2982 21.2573 33.6465 20.3028 34.5934C19.6313 35.2595 19.4341 35.4148 19.1014 35.5389C18.5999 35.7262 18.2029 35.7271 17.6969 35.542C17.3157 35.4026 16.9577 35.0556 9.23911 27.3416C0.322605 18.4304 0.830717 18.9899 0.830717 18.0833C0.830717 17.1768 0.322605 17.7363 9.23911 8.82479C16.9616 1.10667 17.3155 0.763529 17.6969 0.624415C18.1942 0.442941 18.6348 0.444798 19.1184 0.630466Z" fill="white"/>
</svg>
