<svg width="66" height="66" viewBox="0 0 66 66" fill="none" xmlns="http://www.w3.org/2000/svg">
<path fill-rule="evenodd" clip-rule="evenodd" d="M41.1204 15.631C41.4227 15.747 41.6519 15.9304 42.2974 16.5729C43.2875 17.5582 43.4224 17.7935 43.4249 18.5398C43.4263 18.9407 43.3914 19.1645 43.2962 19.365C43.2077 19.5515 41.0056 21.8035 36.4543 26.3621L29.7429 33.0842L36.4617 39.8059C41.6882 45.0345 43.2114 46.5964 43.3194 46.8371C43.4121 47.0439 43.4584 47.2948 43.459 47.5935C43.4604 48.2986 43.2593 48.647 42.3047 49.5939C41.6333 50.26 41.436 50.4153 41.1033 50.5394C40.6018 50.7267 40.2049 50.7275 39.6988 50.5425C39.3177 50.4031 38.9597 50.056 31.2411 42.3421C22.3246 33.4309 22.8327 33.9904 22.8327 33.0838C22.8327 32.1773 22.3246 32.7368 31.2411 23.8253C38.9635 16.1072 39.3175 15.764 39.6988 15.6249C40.1962 15.4434 40.6367 15.4453 41.1204 15.631Z" fill="#EE2326"/>
</svg>
