<svg width="648" height="105" viewBox="0 0 648 105" fill="none" xmlns="http://www.w3.org/2000/svg">
<g filter="url(#filter0_d_5214_146841)">
<path fill-rule="evenodd" clip-rule="evenodd" d="M107 10C107 16.0751 102.075 21 96 21C89.9249 21 85 16.0751 85 10C85 9.66291 85.0152 9.32936 85.0448 9H17C12.5817 9 9 12.5817 9 17V86C9 90.4183 12.5817 94 17 94H83C83 86.8203 88.8203 81 96 81C103.18 81 109 86.8203 109 94H629C633.418 94 637 90.4183 637 86V17C637 12.5817 633.418 9 629 9H106.955C106.985 9.32936 107 9.66291 107 10Z" fill="white"/>
</g>
<defs>
<filter id="filter0_d_5214_146841" x="0" y="0" width="648" height="105" filterUnits="userSpaceOnUse" color-interpolation-filters="sRGB">
<feFlood flood-opacity="0" result="BackgroundImageFix"/>
<feColorMatrix in="SourceAlpha" type="matrix" values="0 0 0 0 0 0 0 0 0 0 0 0 0 0 0 0 0 0 127 0" result="hardAlpha"/>
<feOffset dx="1" dy="1"/>
<feGaussianBlur stdDeviation="5"/>
<feComposite in2="hardAlpha" operator="out"/>
<feColorMatrix type="matrix" values="0 0 0 0 0 0 0 0 0 0 0 0 0 0 0 0 0 0 0.14 0"/>
<feBlend mode="normal" in2="BackgroundImageFix" result="effect1_dropShadow_5214_146841"/>
<feBlend mode="normal" in="SourceGraphic" in2="effect1_dropShadow_5214_146841" result="shape"/>
</filter>
</defs>
</svg>
