<svg width="19" height="20" viewBox="0 0 19 20" fill="none" xmlns="http://www.w3.org/2000/svg">
<path d="M18.6761 10.7617C18.6598 10.764 18.6435 10.765 18.6276 10.765C18.4436 10.765 18.2838 10.6216 18.2593 10.4247C17.6361 5.40008 13.861 1.43282 9.07927 0.778299C8.87555 0.750371 8.73198 0.5543 8.75856 0.340223C8.78513 0.126156 8.97159 -0.0247103 9.17531 0.00336089C14.2916 0.704165 18.3301 4.94798 18.9968 10.3238C19.0234 10.5378 18.8798 10.7338 18.6761 10.7617L18.6761 10.7617ZM13.6233 5.64975C12.408 4.3727 10.8762 3.52825 9.1937 3.20792C8.99177 3.16948 8.7982 3.31027 8.76162 3.52261C8.72504 3.73495 8.85902 3.93821 9.0611 3.97664C12.1775 4.57017 14.6508 7.16907 15.2155 10.444C15.2481 10.6329 15.4047 10.7652 15.581 10.7652C15.6031 10.7652 15.6254 10.7632 15.6477 10.7589C15.8498 10.7204 15.9839 10.517 15.9472 10.3048C15.6423 8.53662 14.8388 6.92716 13.6233 5.64989L13.6233 5.64975ZM12.1326 10.4864C12.1809 10.6558 12.3286 10.7649 12.4886 10.7649C12.524 10.7649 12.5599 10.7596 12.5955 10.7484C12.7922 10.6865 12.9039 10.4687 12.845 10.262C12.5908 9.37015 12.1235 8.54902 11.4939 7.8872C10.8643 7.22557 10.0828 6.73454 9.23408 6.4675C9.03748 6.4056 8.83005 6.52307 8.77116 6.72965C8.71225 6.93638 8.82405 7.1542 9.02064 7.21608C10.5202 7.68824 11.6835 8.9106 12.1326 10.4864L12.1326 10.4864ZM14.6028 15.5622C15.3014 16.2962 15.3014 17.4907 14.6028 18.2247C14.4995 18.3333 14.4082 18.4317 14.3242 18.5221C13.8739 19.007 13.6022 19.2995 12.8661 19.6935C12.4837 19.8982 12.0449 20 11.5584 20C10.7634 20 9.84049 19.7282 8.8253 19.1891C7.43463 18.4504 5.87379 17.2082 4.4301 15.6916C2.93078 14.1161 1.67215 12.3756 0.886088 10.7905C-0.0183797 8.96595 -0.235509 7.46347 0.258092 6.44511C0.633045 5.67177 0.911585 5.38616 1.37285 4.91311C1.45902 4.82472 1.55259 4.72884 1.65589 4.6203C2.35445 3.88625 3.49113 3.88625 4.18969 4.6203L5.7782 6.2895C6.47676 7.02354 6.47676 8.21796 5.7782 8.95201L5.39858 9.35091C5.19925 9.56037 5.19925 9.90128 5.39858 10.1109L9.37783 14.2922C9.47387 14.3932 9.60237 14.4489 9.73939 14.4489C9.87652 14.4489 10.0048 14.3932 10.1009 14.2922L10.4806 13.8933C10.8177 13.5391 11.2677 13.3437 11.7475 13.3437C12.2272 13.3437 12.6771 13.5389 13.0145 13.8933L14.6028 15.5622ZM14.0772 16.1147L12.4887 14.4455C12.2919 14.2388 12.0288 14.1248 11.7476 14.1248C11.4666 14.1248 11.2033 14.2386 11.0065 14.4455L10.6268 14.8444C10.3904 15.093 10.0752 15.2299 9.73949 15.2299C9.40384 15.2299 9.08859 15.0932 8.85214 14.8444L4.87289 10.663C4.38367 10.149 4.38367 9.31227 4.87289 8.79817L5.25251 8.39927C5.66116 7.96985 5.66116 7.27122 5.25251 6.84177L3.664 5.17257C3.45973 4.95793 3.19123 4.85039 2.92297 4.85039C2.65445 4.85039 2.38619 4.95764 2.18179 5.17257C2.07617 5.28356 1.98027 5.38189 1.89231 5.47229C1.45802 5.9177 1.24019 6.14111 0.920718 6.79986C0.546151 7.5722 0.768373 8.86122 1.54584 10.4295C2.29771 11.9458 3.50863 13.6183 4.95601 15.139C6.34517 16.5987 7.8385 17.7895 9.16077 18.4916C9.8533 18.8594 10.742 19.2218 11.5539 19.2218C11.8998 19.2218 12.2315 19.1561 12.5285 18.997C13.1554 18.6615 13.3681 18.4325 13.7919 17.9761C13.8779 17.8837 13.9712 17.7829 14.0768 17.6719C14.4858 17.2425 14.4858 16.5439 14.0771 16.1144L14.0772 16.1147Z" fill="#F26321"/>
</svg>
